<?xml version="1.0" encoding="UTF-8"?>
<!DOCTYPE svg PUBLIC "-//W3C//DTD SVG 1.1//EN" "http://www.w3.org/Graphics/SVG/1.1/DTD/svg11.dtd">
<svg xmlns="http://www.w3.org/2000/svg" version="1.1" width="2544px" height="2544px" style="shape-rendering:geometricPrecision; text-rendering:geometricPrecision; image-rendering:optimizeQuality; fill-rule:evenodd; clip-rule:evenodd" xmlns:xlink="http://www.w3.org/1999/xlink">
<g><path style="opacity:1" fill="#fefefe" d="M -0.5,-0.5 C 847.5,-0.5 1695.5,-0.5 2543.5,-0.5C 2543.5,847.5 2543.5,1695.5 2543.5,2543.5C 1695.5,2543.5 847.5,2543.5 -0.5,2543.5C -0.5,1695.5 -0.5,847.5 -0.5,-0.5 Z"/></g>
<g><path style="opacity:1" fill="#bf1e2d" d="M 49.5,49.5 C 864.167,49.5 1678.83,49.5 2493.5,49.5C 2493.5,864.167 2493.5,1678.83 2493.5,2493.5C 1678.83,2493.5 864.167,2493.5 49.5,2493.5C 49.5,1678.83 49.5,864.167 49.5,49.5 Z"/></g>
<g><path style="opacity:1" fill="#e9b3a4" d="M 665.5,92.5 C 477.5,92.5 289.5,92.5 101.5,92.5C 101.5,878.5 101.5,1664.5 101.5,2450.5C 289.5,2450.5 477.5,2450.5 665.5,2450.5C 477.334,2451.5 289.001,2451.83 100.5,2451.5C 100.5,1664.83 100.5,878.167 100.5,91.5C 289.001,91.167 477.334,91.5003 665.5,92.5 Z"/></g>
<g><path style="opacity:1" fill="#fefffe" d="M 665.5,92.5 C 665.5,878.5 665.5,1664.5 665.5,2450.5C 477.5,2450.5 289.5,2450.5 101.5,2450.5C 101.5,1664.5 101.5,878.5 101.5,92.5C 289.5,92.5 477.5,92.5 665.5,92.5 Z"/></g>
<g><path style="opacity:1" fill="#db8c7b" d="M 2439.5,92.5 C 1867.5,92.5 1295.5,92.5 723.5,92.5C 723.5,878.5 723.5,1664.5 723.5,2450.5C 1295.5,2450.5 1867.5,2450.5 2439.5,2450.5C 1867.33,2451.5 1295,2451.83 722.5,2451.5C 722.5,1664.83 722.5,878.167 722.5,91.5C 1295,91.1668 1867.33,91.5001 2439.5,92.5 Z"/></g>
<g><path style="opacity:1" fill="#fefffe" d="M 2439.5,92.5 C 2439.5,878.5 2439.5,1664.5 2439.5,2450.5C 1867.5,2450.5 1295.5,2450.5 723.5,2450.5C 723.5,1664.5 723.5,878.5 723.5,92.5C 1295.5,92.5 1867.5,92.5 2439.5,92.5 Z"/></g>
<g><path style="opacity:1" fill="#dc8d7c" d="M 2389.5,142.5 C 1850.83,142.5 1312.17,142.5 773.5,142.5C 773.5,180.5 773.5,218.5 773.5,256.5C 772.501,218.337 772.168,180.004 772.5,141.5C 1311.67,141.167 1850.67,141.5 2389.5,142.5 Z"/></g>
<g><path style="opacity:1" fill="#cf6456" d="M 615.5,141.5 C 615.5,141.833 615.5,142.167 615.5,142.5C 460.833,142.5 306.167,142.5 151.5,142.5C 151.5,895.167 151.5,1647.83 151.5,2400.5C 151.167,2400.5 150.833,2400.5 150.5,2400.5C 150.5,1647.5 150.5,894.5 150.5,141.5C 305.5,141.5 460.5,141.5 615.5,141.5 Z"/></g>
<g><path style="opacity:1" fill="#be1e2c" d="M 615.5,142.5 C 615.5,895.167 615.5,1647.83 615.5,2400.5C 460.833,2400.5 306.167,2400.5 151.5,2400.5C 151.5,1647.83 151.5,895.167 151.5,142.5C 306.167,142.5 460.833,142.5 615.5,142.5 Z"/></g>
<g><path style="opacity:1" fill="#bf1e2d" d="M 2389.5,142.5 C 2389.5,817.5 2389.5,1492.5 2389.5,2167.5C 2120.17,2167.5 1850.83,2167.5 1581.5,2167.5C 1580.5,2199.66 1580.17,2232 1580.5,2264.5C 1618.5,2264.5 1656.5,2264.5 1694.5,2264.5C 1926.17,2264.5 2157.83,2264.5 2389.5,2264.5C 2389.5,2309.83 2389.5,2355.17 2389.5,2400.5C 1850.83,2400.5 1312.17,2400.5 773.5,2400.5C 773.5,1701.83 773.5,1003.17 773.5,304.5C 898.5,304.5 1023.5,304.5 1148.5,304.5C 1248.5,304.5 1348.5,304.5 1448.5,304.5C 1494,305.499 1539.66,305.832 1585.5,305.5C 1585.5,909.167 1585.5,1512.83 1585.5,2116.5C 1601.68,2116.83 1617.68,2116.5 1633.5,2115.5C 1634.16,1496.06 1633.5,876.732 1631.5,257.5C 1345.5,257.608 1059.5,257.274 773.5,256.5C 773.5,218.5 773.5,180.5 773.5,142.5C 1312.17,142.5 1850.83,142.5 2389.5,142.5 Z"/></g>
<g><path style="opacity:1" fill="#dd907f" d="M 1148.5,304.5 C 1023.5,304.5 898.5,304.5 773.5,304.5C 773.5,1003.17 773.5,1701.83 773.5,2400.5C 1312.17,2400.5 1850.83,2400.5 2389.5,2400.5C 1850.67,2401.5 1311.67,2401.83 772.5,2401.5C 772.5,1702.17 772.5,1002.83 772.5,303.5C 898.001,303.167 1023.33,303.5 1148.5,304.5 Z"/></g>
<g><path style="opacity:1" fill="#db8979" d="M 1448.5,304.5 C 1494.5,304.5 1540.5,304.5 1586.5,304.5C 1586.5,908.167 1586.5,1511.83 1586.5,2115.5C 1602.17,2115.5 1617.83,2115.5 1633.5,2115.5C 1617.68,2116.5 1601.68,2116.83 1585.5,2116.5C 1585.5,1512.83 1585.5,909.167 1585.5,305.5C 1539.66,305.832 1494,305.499 1448.5,304.5 Z"/></g>
<g><path style="opacity:1" fill="#e8b0a1" d="M 1581.5,2167.5 C 1581.5,2199.5 1581.5,2231.5 1581.5,2263.5C 1619.34,2263.17 1657,2263.5 1694.5,2264.5C 1656.5,2264.5 1618.5,2264.5 1580.5,2264.5C 1580.17,2232 1580.5,2199.66 1581.5,2167.5 Z"/></g>
<g><path style="opacity:1" fill="#e4a595" d="M 615.5,141.5 C 616.5,894.666 616.833,1648 616.5,2401.5C 460.999,2401.83 305.666,2401.5 150.5,2400.5C 150.833,2400.5 151.167,2400.5 151.5,2400.5C 306.167,2400.5 460.833,2400.5 615.5,2400.5C 615.5,1647.83 615.5,895.167 615.5,142.5C 615.5,142.167 615.5,141.833 615.5,141.5 Z"/></g>
</svg>
