<?xml version="1.0" encoding="UTF-8"?>
<svg version="1.1" xmlns="http://www.w3.org/2000/svg" width="500" height="499">
<path d="M0 0 C-0.61835156 7.10368159 -2.01941239 13.77755328 -3.75 20.6875 C-4.29927799 22.92681358 -4.84743595 25.16640216 -5.39453125 27.40625 C-5.6673291 28.52 -5.94012695 29.63375 -6.22119141 30.78125 C-7.3402655 35.40628851 -8.39452554 40.044806 -9.4375 44.6875 C-13.80060226 64.03598201 -18.34178839 83.3426038 -23.00488281 102.62084961 C-24.5618501 109.0865005 -25.99992132 115.56248859 -27.3515625 122.07421875 C-28.19265153 125.86925299 -29.25200536 129.58857656 -30.30859375 133.328125 C-31.27139637 137.04878597 -31.93426105 140.80143207 -32.5703125 144.58984375 C-32.95719062 146.75987831 -33.43659432 148.86993117 -34 151 C-29.10100145 147.01244304 -24.59512641 142.70542809 -20.125 138.25 C-19.24968628 137.38145386 -19.24968628 137.38145386 -18.35668945 136.49536133 C-15.30627517 133.53051 -15.30627517 133.53051 -13 130 C-12.34 130 -11.68 130 -11 130 C-10.73960937 129.44828125 -10.47921875 128.8965625 -10.2109375 128.328125 C-8.83563915 125.684003 -7.25673974 123.24392537 -5.625 120.75 C-5.00753906 119.7703125 -4.39007813 118.790625 -3.75390625 117.78125 C-2.74523611 116.18175526 -1.72048172 114.59166025 -0.65234375 113.03125 C3.14621624 106.82285088 3.06973449 99.02406543 2 92 C-0.25184243 88.41299436 -2.40657599 86.41704081 -6.25 84.6875 C-6.95640625 84.36136719 -7.6628125 84.03523438 -8.390625 83.69921875 C-8.92171875 83.46847656 -9.4528125 83.23773438 -10 83 C-8.94374411 72.43744106 -6.28648174 62.13152672 -3.875 51.8125 C-3.70444092 51.08168213 -3.53388184 50.35086426 -3.3581543 49.59790039 C-2.67003904 46.68495896 -1.94709685 43.84129054 -1 41 C18.05814745 41.92966573 36.5509271 42.95007276 51 57 C56.20162255 62.73972144 57.37619325 68.14047603 57.3125 75.75 C57.30686035 76.45664795 57.3012207 77.1632959 57.29541016 77.89135742 C56.80771049 99.01454727 40.83227864 115.53175453 27 130 C26.1646875 130.8765625 25.329375 131.753125 24.46875 132.65625 C19.46143158 137.79033598 14.21356216 142.42226325 8.609375 146.89453125 C6.21587716 148.82581169 3.91433631 150.82234319 1.625 152.875 C-1.10539117 155.293982 -3.81940202 157.19479574 -7 159 C-7.71800781 159.57878906 -8.43601562 160.15757812 -9.17578125 160.75390625 C-12.51781727 163.41181872 -15.98265901 165.83193381 -19.5 168.25 C-20.19834961 168.73960205 -20.89669922 169.2292041 -21.61621094 169.73364258 C-24.92477517 172.02566135 -28.17636418 174.16634863 -31.796875 175.93359375 C-36.68767914 178.41772391 -40.15882043 180.18105758 -42.515625 185.27734375 C-43.39317417 188.70744667 -44.05350118 192.05391155 -44.58886719 195.54736328 C-45.37966899 200.26493744 -46.54090617 204.90540065 -47.625 209.5625 C-48.03416831 211.39706538 -48.4430363 213.23169778 -48.8515625 215.06640625 C-49.05885986 215.91444824 -49.26615723 216.76249023 -49.47973633 217.63623047 C-50.10089475 220.22872467 -50.10089475 220.22872467 -50.36328125 223.85546875 C-52.77732976 228.49343784 -56.15068685 229.08172163 -60.97851562 230.66796875 C-62.16123047 231.02503906 -63.34394531 231.38210938 -64.5625 231.75 C-65.71814453 232.12253906 -66.87378906 232.49507812 -68.06445312 232.87890625 C-70.33429856 233.60845339 -72.60780231 234.32672705 -74.88500977 235.03295898 C-81.7889162 237.17625966 -88.62006263 239.53510481 -95.4375 241.9375 C-96.17685791 242.19764893 -96.91621582 242.45779785 -97.67797852 242.72583008 C-101.63607984 244.12875084 -105.55294513 245.58942363 -109.4375 247.1875 C-112.4101425 248.40628343 -115.34758321 249.43420174 -118.4375 250.3125 C-124.55700939 252.05533627 -130.46917553 254.37133637 -136.40014648 256.66333008 C-137.19364502 256.96392334 -137.98714355 257.2645166 -138.8046875 257.57421875 C-139.87178955 257.98546997 -139.87178955 257.98546997 -140.96044922 258.4050293 C-143 259 -143 259 -147 259 C-148.10531407 256.95895429 -149.20919907 254.91713464 -150.3125 252.875 C-150.92738281 251.73804688 -151.54226562 250.60109375 -152.17578125 249.4296875 C-157 240.35974304 -157 240.35974304 -157 238 C-160.10457887 239.08215446 -163.20861285 240.16586323 -166.3125 241.25 C-167.23369629 241.57137939 -168.15489258 241.89275879 -169.10400391 242.22387695 C-173.71177837 243.83501249 -178.3051118 245.47120715 -182.875 247.1875 C-198.72727273 253 -198.72727273 253 -205 253 C-205.061875 254.258125 -205.12375 255.51625 -205.1875 256.8125 C-205.30738281 257.71613281 -205.42726562 258.61976563 -205.55078125 259.55078125 C-205.79415911 261.41949998 -206.0139524 263.29485184 -206.10302734 265.17724609 C-206.43174043 271.27921894 -207.20363708 277.03569987 -211 282 C-217.85535399 286.74075358 -226.26321028 288.70094784 -234.20019531 290.91601562 C-239.19508038 292.34092501 -244.09269325 294.00739469 -249.00732422 295.68505859 C-252.31980886 296.81360956 -255.64170583 297.90744904 -258.96875 298.9921875 C-263.76499114 300.57074065 -268.51488347 302.24912428 -273.25390625 303.99121094 C-278.07253083 305.7613529 -282.90929883 307.47882866 -287.75 309.1875 C-288.73871094 309.54263672 -289.72742188 309.89777344 -290.74609375 310.26367188 C-295.85564889 312.06122565 -300.6000348 313.49469599 -306 314 C-305.29385028 308.62898243 -304.31309179 303.3605535 -303.1875 298.0625 C-303.01226807 297.23202148 -302.83703613 296.40154297 -302.65649414 295.54589844 C-301.38311427 289.59323108 -299.95370249 283.69339867 -298.43481445 277.79931641 C-296.9662957 272.03714236 -295.80823924 266.24386184 -294.7109375 260.40234375 C-293.97374071 256.87433056 -292.99405305 253.46315258 -292 250 C-291.68049058 248.35934448 -291.38719911 246.71328419 -291.125 245.0625 C-290.3147331 240.39868029 -289.24239171 235.83172903 -288.0625 231.25 C-286.36867335 224.67110186 -284.96501109 218.0784414 -283.7109375 211.40234375 C-282.97374071 207.87433056 -281.99405305 204.46315258 -281 201 C-280.68049058 199.35934448 -280.38719911 197.71328419 -280.125 196.0625 C-279.31473325 191.39868112 -278.24240751 186.83172592 -277.0625 182.25 C-275.33532028 175.54239661 -273.90751499 168.81548384 -272.61328125 162.01171875 C-272 159 -272 159 -271 156 C-285.23331992 168.11346376 -304.20609618 184.80054736 -308 204 C-308.36326291 209.63057511 -308.1989734 213.14638519 -305 218 C-301.62680284 221.28202967 -298.51250751 222.74069558 -294 224 C-295.54830492 232.29158029 -297.49566044 240.48486183 -299.45019531 248.6875 C-300.3908868 252.64408515 -301.31978649 256.60344096 -302.25 260.5625 C-302.5884896 262.00131433 -302.92702632 263.44011758 -303.265625 264.87890625 C-303.50796875 265.90886719 -303.7503125 266.93882812 -304 268 C-322.6131957 269.00310636 -340.7562044 265.62644962 -355.5 253.625 C-358 251 -358 251 -358 249 C-358.66 249 -359.32 249 -360 249 C-364.47892277 238.17593663 -364.46303117 226.85164435 -360 216 C-351.74053036 196.3837596 -334.9505859 179.65828613 -319 166 C-318.34386719 165.41605469 -317.68773437 164.83210937 -317.01171875 164.23046875 C-316.38910156 163.68003906 -315.76648438 163.12960938 -315.125 162.5625 C-314.29355469 161.82193359 -314.29355469 161.82193359 -313.4453125 161.06640625 C-312 160 -312 160 -310 160 C-310 159.34 -310 158.68 -310 158 C-308.62900809 157.04030566 -307.24944969 156.09120051 -305.8359375 155.1953125 C-302.42872746 152.97700128 -299.23646697 150.45776815 -296 148 C-291.41639623 144.51921819 -286.81411354 141.16030819 -282 138 C-279.54604307 136.2704724 -277.10179435 134.52811303 -274.66015625 132.78125 C-272 131 -272 131 -270.20581055 130.18286133 C-266.47799922 128.4356641 -266.47799922 128.4356641 -264.09936523 125.20263672 C-263.48338272 123.0371012 -263.05416695 120.90861864 -262.6875 118.6875 C-262.4012003 117.21195541 -262.11345458 115.73669061 -261.82421875 114.26171875 C-261.69192871 113.54338867 -261.55963867 112.82505859 -261.42333984 112.08496094 C-260.79805074 109.00539409 -259.87275971 106.01725498 -259 103 C-258.46385554 100.22247383 -258.01063299 97.44126634 -257.5625 94.6484375 C-257.376875 93.77445312 -257.19125 92.90046875 -257 92 C-256.855625 91.12601562 -256.71125 90.25203125 -256.5625 89.3515625 C-254.30466658 85.95352321 -251.71280066 85.71912875 -247.86181641 84.73339844 C-244.995669 83.99889009 -242.24298612 83.10502592 -239.44921875 82.1328125 C-238.50973389 81.80692139 -237.57024902 81.48103027 -236.60229492 81.14526367 C-235.6404126 80.80857666 -234.67853027 80.47188965 -233.6875 80.125 C-232.67856689 79.77348877 -231.66963379 79.42197754 -230.63012695 79.05981445 C-224.25934759 76.82796709 -217.95817993 74.47286448 -211.67578125 72.00390625 C-209.257649 71.09666539 -206.85776718 70.33134092 -204.375 69.625 C-199.42401023 68.20813138 -194.6340653 66.42411282 -189.8125 64.625 C-183.79479739 62.38486358 -177.77208524 60.17761258 -171.6875 58.125 C-170.53636719 57.73570313 -169.38523438 57.34640625 -168.19921875 56.9453125 C-165.13515707 56.03993652 -162.1601151 55.4493961 -159 55 C-158.52949219 55.81984375 -158.05898437 56.6396875 -157.57421875 57.484375 C-156.64029297 59.10085937 -156.64029297 59.10085937 -155.6875 60.75 C-155.07261719 61.81734375 -154.45773438 62.8846875 -153.82421875 63.984375 C-152.32613663 66.46086193 -150.7542174 68.70718811 -149 71 C-148.21052979 70.72325439 -147.42105957 70.44650879 -146.60766602 70.16137695 C-120.01227667 60.858702 -120.01227667 60.858702 -109.8125 57.875 C-108.79168335 57.57589722 -108.79168335 57.57589722 -107.75024414 57.27075195 C-103.28881892 56 -103.28881892 56 -101 56 C-101.03480469 55.00484375 -101.06960938 54.0096875 -101.10546875 52.984375 C-100.99693623 48.88425743 -100.3437529 45.1932582 -99.3125 41.25 C-99.16361328 40.59128906 -99.01472656 39.93257812 -98.86132812 39.25390625 C-98.0378626 36.06983957 -97.34627167 34.27870646 -94.7578125 32.1953125 C-91.72185167 30.87944279 -88.6917078 29.70303922 -85.5625 28.625 C-84.33144531 28.19574219 -83.10039062 27.76648438 -81.83203125 27.32421875 C-80.88191162 26.99623291 -80.88191162 26.99623291 -79.91259766 26.66162109 C-72.86874884 24.22495652 -65.82642332 21.78655391 -58.9375 18.9375 C-54.1134119 16.96832305 -49.18239909 15.48672142 -44.1953125 13.98828125 C-40.51028633 12.84853599 -36.90866755 11.5475636 -33.29296875 10.20703125 C-28.79224763 8.55730073 -24.27240269 6.96417386 -19.75 5.375 C-18.89784912 5.07360107 -18.04569824 4.77220215 -17.16772461 4.46166992 C-4.45190314 0 -4.45190314 0 0 0 Z M-110.5 66.8125 C-113.86714911 68.19106176 -117.18444869 69.39508447 -120.6875 70.375 C-125.19947335 71.67335799 -129.52197422 73.3162494 -133.875 75.0625 C-134.51783936 75.32015137 -135.16067871 75.57780273 -135.82299805 75.84326172 C-138.94769788 77.11286362 -142.01305417 78.43147819 -145 80 C-143.67712547 83.46270512 -142.16613562 86.69653118 -140.390625 89.94921875 C-139.88273438 90.88056641 -139.37484375 91.81191406 -138.8515625 92.77148438 C-138.32304687 93.73376953 -137.79453125 94.69605469 -137.25 95.6875 C-136.48042969 97.10192383 -136.48042969 97.10192383 -135.6953125 98.54492188 C-132.69010241 104.03811368 -129.57812375 109.44400164 -126.30639648 114.78295898 C-124.67361061 117.55390433 -123.27860609 120.41158407 -121.87890625 123.3046875 C-120.7995723 125.38660277 -119.49966547 127.20040143 -118 129 C-116.14837275 127.14837275 -116.13043212 124.17389994 -115.625 121.6875 C-114.67391546 117.11675389 -113.6699188 112.58208105 -112.5 108.0625 C-111.07503838 102.46601862 -109.93228278 96.83558715 -108.828125 91.16796875 C-108.22281714 88.08044692 -107.58052372 85.0023641 -106.921875 81.92578125 C-106.73810303 81.06670166 -106.55433105 80.20762207 -106.36499023 79.32250977 C-106.00228653 77.63368568 -105.63728874 75.94535233 -105.26977539 74.25756836 C-104.59758166 71.119024 -104 68.21981858 -104 65 C-106.53787597 65 -108.15986707 65.82386789 -110.5 66.8125 Z M-189 183 C-189.18175781 183.88300781 -189.36351562 184.76601562 -189.55078125 185.67578125 C-190.74798813 191.39167667 -191.96631464 197.06827602 -193.5625 202.6875 C-194.83162487 207.17875536 -195.68616926 211.65624438 -196.46875 216.25390625 C-197.00721228 219.03728111 -197.7182657 221.71315595 -198.5 224.4375 C-200.14659242 230.22146933 -201.11842834 236.05716987 -202 242 C-188.57419228 239.52101174 -175.6184339 234.095906 -163 229 C-167.85054328 218.93051775 -173.23106874 209.16616371 -178.66845703 199.40478516 C-179.55960787 197.79535432 -180.44074869 196.18034195 -181.31201172 194.56005859 C-183.57513381 190.37886054 -185.85834564 186.60708464 -189 183 Z " fill="#ED5729" transform="translate(403,30)"/>
<path d="M0 0 C-0.61835156 7.10368159 -2.01941239 13.77755328 -3.75 20.6875 C-4.29927799 22.92681358 -4.84743595 25.16640216 -5.39453125 27.40625 C-5.80372803 29.076875 -5.80372803 29.076875 -6.22119141 30.78125 C-7.3402655 35.40628851 -8.39452554 40.044806 -9.4375 44.6875 C-13.80060226 64.03598201 -18.34178839 83.3426038 -23.00488281 102.62084961 C-24.5618501 109.0865005 -25.99992132 115.56248859 -27.3515625 122.07421875 C-28.1939128 125.87494388 -29.25379142 129.5998221 -30.31640625 133.34375 C-31.02911979 136.11315119 -31.53123766 138.86717781 -32 141.6875 C-35.08943339 158.70351983 -48.03529403 165.90096813 -61.53955078 175.30615234 C-82.76531297 189.91860899 -105.07707489 202.27391143 -128 214 C-129.16660156 214.60714844 -130.33320313 215.21429688 -131.53515625 215.83984375 C-134 217 -134 217 -136 217 C-135.17665047 209.87152642 -134.16083894 203.11582933 -132.0625 196.25 C-130.38896223 190.75211852 -129.30716237 185.35281227 -128.4375 179.6875 C-127.61958176 174.36140567 -126.64328482 169.49221413 -124.75 164.43359375 C-123.03656599 158.87385736 -122.31974532 153.00075906 -121.375 147.26708984 C-119.19720797 134.10108934 -116.81155131 120.99824731 -113.5 108.0625 C-112.40563607 103.76966005 -111.47274496 99.47326489 -110.625 95.125 C-108.65661082 85.03042664 -106.31379203 75.02002401 -104 65 C-104.75023437 65.32613281 -105.50046875 65.65226562 -106.2734375 65.98828125 C-111.06607477 68.03450799 -115.78916852 70.03130603 -120.8125 71.4375 C-125.92620792 72.87132734 -130.76616679 74.85707242 -135.64770508 76.93139648 C-139.42381834 78.5019745 -142.94245573 79.48969535 -147 80 C-150.01464084 75.6589172 -150.01464084 75.6589172 -149.95507812 72.97827148 C-149 71 -149 71 -146.49414062 69.70727539 C-145.39263672 69.34110107 -144.29113281 68.97492676 -143.15625 68.59765625 C-141.93655518 68.18435059 -140.71686035 67.77104492 -139.46020508 67.34521484 C-138.14034193 66.91701019 -136.82026962 66.48944975 -135.5 66.0625 C-134.17111208 65.62037202 -132.84257976 65.1771738 -131.5144043 64.73291016 C-105.24497424 56 -105.24497424 56 -101 56 C-101.05220703 54.50726563 -101.05220703 54.50726563 -101.10546875 52.984375 C-100.99693623 48.88425743 -100.3437529 45.1932582 -99.3125 41.25 C-99.08916992 40.26193359 -99.08916992 40.26193359 -98.86132812 39.25390625 C-98.0378626 36.06983957 -97.34627167 34.27870646 -94.7578125 32.1953125 C-91.72185167 30.87944279 -88.6917078 29.70303922 -85.5625 28.625 C-84.33144531 28.19574219 -83.10039062 27.76648438 -81.83203125 27.32421875 C-81.19861816 27.10556152 -80.56520508 26.8869043 -79.91259766 26.66162109 C-72.86874884 24.22495652 -65.82642332 21.78655391 -58.9375 18.9375 C-54.1134119 16.96832305 -49.18239909 15.48672142 -44.1953125 13.98828125 C-40.51028633 12.84853599 -36.90866755 11.5475636 -33.29296875 10.20703125 C-28.79224763 8.55730073 -24.27240269 6.96417386 -19.75 5.375 C-18.89784912 5.07360107 -18.04569824 4.77220215 -17.16772461 4.46166992 C-4.45190314 0 -4.45190314 0 0 0 Z " fill="#ED5729" transform="translate(403,30)"/>
<path d="M0 0 C19.05814745 0.92966573 37.5509271 1.95007276 52 16 C57.20162255 21.73972144 58.37619325 27.14047603 58.3125 34.75 C58.30686035 35.45664795 58.3012207 36.1632959 58.29541016 36.89135742 C57.80771049 58.01454727 41.83227864 74.53175453 28 89 C27.1646875 89.8765625 26.329375 90.753125 25.46875 91.65625 C20.46143158 96.79033598 15.21356216 101.42226325 9.609375 105.89453125 C7.21587716 107.82581169 4.91433631 109.82234319 2.625 111.875 C-0.10539117 114.293982 -2.81940202 116.19479574 -6 118 C-6.71800781 118.57878906 -7.43601562 119.15757812 -8.17578125 119.75390625 C-11.51781727 122.41181872 -14.98265901 124.83193381 -18.5 127.25 C-19.19834961 127.73960205 -19.89669922 128.2292041 -20.61621094 128.73364258 C-23.92477517 131.02566135 -27.17636418 133.16634863 -30.796875 134.93359375 C-35.68767914 137.41772391 -39.15882043 139.18105758 -41.515625 144.27734375 C-42.39317417 147.70744667 -43.05350118 151.05391155 -43.58886719 154.54736328 C-44.37966899 159.26493744 -45.54090617 163.90540065 -46.625 168.5625 C-47.03416831 170.39706538 -47.4430363 172.23169778 -47.8515625 174.06640625 C-48.05885986 174.91444824 -48.26615723 175.76249023 -48.47973633 176.63623047 C-49.10089475 179.22872467 -49.10089475 179.22872467 -49.36328125 182.85546875 C-51.77732976 187.49343784 -55.15068685 188.08172163 -59.97851562 189.66796875 C-61.16123047 190.02503906 -62.34394531 190.38210938 -63.5625 190.75 C-64.71814453 191.12253906 -65.87378906 191.49507812 -67.06445312 191.87890625 C-69.33429856 192.60845339 -71.60780231 193.32672705 -73.88500977 194.03295898 C-80.7889162 196.17625966 -87.62006263 198.53510481 -94.4375 200.9375 C-95.17685791 201.19764893 -95.91621582 201.45779785 -96.67797852 201.72583008 C-100.63607984 203.12875084 -104.55294513 204.58942363 -108.4375 206.1875 C-111.4101425 207.40628343 -114.34758321 208.43420174 -117.4375 209.3125 C-123.55700939 211.05533627 -129.46917553 213.37133637 -135.40014648 215.66333008 C-136.59039429 216.11421997 -136.59039429 216.11421997 -137.8046875 216.57421875 C-138.51608887 216.84838623 -139.22749023 217.12255371 -139.96044922 217.4050293 C-142 218 -142 218 -146 218 C-147.10531407 215.95895429 -148.20919907 213.91713464 -149.3125 211.875 C-149.92738281 210.73804688 -150.54226562 209.60109375 -151.17578125 208.4296875 C-156 199.35974304 -156 199.35974304 -156 197 C-159.10457887 198.08215446 -162.20861285 199.16586323 -165.3125 200.25 C-166.69429443 200.73206909 -166.69429443 200.73206909 -168.10400391 201.22387695 C-172.71177837 202.83501249 -177.3051118 204.47120715 -181.875 206.1875 C-197.72727273 212 -197.72727273 212 -204 212 C-203.96682761 210.56152439 -203.89726123 209.1238593 -203.8125 207.6875 C-203.77769531 206.88699219 -203.74289063 206.08648437 -203.70703125 205.26171875 C-203 203 -203 203 -200.875 201.3515625 C-197.69363606 199.85597565 -194.54088714 198.7447434 -191.1875 197.6875 C-184.44482338 195.52265798 -177.84329618 193.08970959 -171.2421875 190.52734375 C-167.805258 189.23475009 -164.31998851 188.20079646 -160.796875 187.16796875 C-154.03894863 185.11258274 -147.7525664 182.39232235 -141.375 179.375 C-140.2411084 178.84358398 -139.1072168 178.31216797 -137.93896484 177.76464844 C-128.12731345 173.12994329 -118.49641194 168.2481088 -109 163 C-107.45022461 162.14994385 -107.45022461 162.14994385 -105.86914062 161.28271484 C-79.6093432 146.81558178 -52.78877632 130.9442771 -31.5390625 109.5456543 C-29.64416565 107.64264162 -27.73586781 105.75341478 -25.828125 103.86328125 C-24.30202824 102.3464096 -22.77598787 100.8294812 -21.25 99.3125 C-20.08017578 98.15524414 -20.08017578 98.15524414 -18.88671875 96.97460938 C-17.77490234 95.86762695 -17.77490234 95.86762695 -16.640625 94.73828125 C-15.62790527 93.73341675 -15.62790527 93.73341675 -14.59472656 92.70825195 C-12.91986953 91.07595037 -12.91986953 91.07595037 -12 89 C-11.34 89 -10.68 89 -10 89 C-9.73960937 88.44828125 -9.47921875 87.8965625 -9.2109375 87.328125 C-7.83563915 84.684003 -6.25673974 82.24392537 -4.625 79.75 C-4.00753906 78.7703125 -3.39007813 77.790625 -2.75390625 76.78125 C-1.74523611 75.18175526 -0.72048172 73.59166025 0.34765625 72.03125 C4.14621624 65.82285088 4.06973449 58.02406543 3 51 C0.74815757 47.41299436 -1.40657599 45.41704081 -5.25 43.6875 C-5.95640625 43.36136719 -6.6628125 43.03523438 -7.390625 42.69921875 C-7.92171875 42.46847656 -8.4528125 42.23773438 -9 42 C-7.94374411 31.43744106 -5.28648174 21.13152672 -2.875 10.8125 C-2.70444092 10.08168213 -2.53388184 9.35086426 -2.3581543 8.59790039 C-1.67003904 5.68495896 -0.94709685 2.84129054 0 0 Z " fill="#0C5A2E" transform="translate(402,71)"/>
<path d="M0 0 C4.57820159 5.83175678 8.23780086 12.50085959 10.6875 19.5 C11.6731581 22.86548463 11.6731581 22.86548463 13.38549805 24.38061523 C15.49491103 26.49640781 16.70482572 28.7935987 18.14453125 31.41015625 C19.03688477 33.01987305 19.03688477 33.01987305 19.94726562 34.66210938 C20.56279297 35.78423828 21.17832031 36.90636719 21.8125 38.0625 C25.67157942 45.05991295 29.54584453 52.02484751 33.72045898 58.84008789 C35.67221514 62.13472378 37.34308639 65.55060712 39 69 C39.36609375 69.59039062 39.7321875 70.18078125 40.109375 70.7890625 C42.45883749 76.62150007 40.54171096 82.88985495 39.125 88.75 C38.7509247 90.35638066 38.37852013 91.96315133 38.0078125 93.5703125 C37.83024414 94.33762695 37.65267578 95.10494141 37.46972656 95.89550781 C36.8973653 98.45982904 36.43318266 101.0337801 36 103.625 C35.09961894 108.85042581 33.78296981 113.95606689 32.46313477 119.0871582 C31.25236318 123.84355852 30.31296295 128.58962642 29.49609375 133.42578125 C28.79020038 137.08864526 27.74527888 140.6365688 26.7265625 144.22265625 C25.74401094 147.97853883 25.07217502 151.76309792 24.4296875 155.58984375 C24.28789062 156.38519531 24.14609375 157.18054688 24 158 C23.86537354 158.99374634 23.86537354 158.99374634 23.72802734 160.00756836 C23 162 23 162 21.22167969 163.24853516 C20.46274414 163.59190918 19.70380859 163.9352832 18.921875 164.2890625 C18.09042969 164.67320312 17.25898438 165.05734375 16.40234375 165.453125 C15.52707031 165.83984375 14.65179688 166.2265625 13.75 166.625 C12.89019531 167.01945313 12.03039062 167.41390625 11.14453125 167.8203125 C8.77216741 168.90231511 6.38784456 169.95275652 4 171 C3.05640625 171.44085938 2.1128125 171.88171875 1.140625 172.3359375 C-1.46186523 173.14327936 -2.55156741 173.21915755 -5 172 C-6.640625 169.83984375 -6.640625 169.83984375 -8.25 166.9375 C-8.84941406 165.85984375 -9.44882813 164.7821875 -10.06640625 163.671875 C-12.52234041 159.06052716 -14.86732283 154.39187298 -17.15917969 149.69702148 C-20.32240999 143.22774217 -23.83116414 137.10321931 -27.94921875 131.1875 C-31.07390317 124.68258076 -29.59612131 119.06806547 -27.75 112.5 C-27.27699822 110.72734695 -26.80697138 108.95389755 -26.33984375 107.1796875 C-26.10894043 106.30666992 -25.87803711 105.43365234 -25.64013672 104.53417969 C-24.44038707 99.7845987 -23.56181111 94.98015121 -22.67578125 90.1640625 C-22 87 -22 87 -20.97265625 83.93359375 C-20.02201477 81.06639795 -19.53216102 78.4247324 -19.125 75.4375 C-18.46426943 71.22726337 -17.5425376 67.3504032 -16.1875 63.3125 C-14.1163635 56.92266036 -12.82862841 50.46756556 -11.5625 43.875 C-9.90091735 35.22548907 -8.00334391 26.7191535 -5.67089844 18.22631836 C-4.35298214 13.42057783 -3.24486266 8.64095446 -2.45703125 3.71484375 C-2 2 -2 2 0 0 Z " fill="#BD2026" transform="translate(244,86)"/>
<path d="M0 0 C2.63562187 6.97453678 -1.06912367 18.30615394 -3.6875 25.0625 C-5.66316839 29.02886087 -8.43594631 31.50443079 -11.85546875 34.2578125 C-24.38762715 44.4387645 -39.78366677 60.72340457 -43 77 C-43.36326291 82.63057511 -43.1989734 86.14638519 -40 91 C-36.62680284 94.28202967 -33.51250751 95.74069558 -29 97 C-30.54830492 105.29158029 -32.49566044 113.48486183 -34.45019531 121.6875 C-35.3908868 125.64408515 -36.31978649 129.60344096 -37.25 133.5625 C-37.5884896 135.00131433 -37.92702632 136.44011758 -38.265625 137.87890625 C-38.50796875 138.90886719 -38.7503125 139.93882812 -39 141 C-57.6131957 142.00310636 -75.7562044 138.62644962 -90.5 126.625 C-93 124 -93 124 -93 122 C-93.66 122 -94.32 122 -95 122 C-99.47892277 111.17593663 -99.46303117 99.85164435 -95 89 C-86.74053036 69.3837596 -69.9505859 52.65828613 -54 39 C-53.34386719 38.41605469 -52.68773437 37.83210938 -52.01171875 37.23046875 C-51.38910156 36.68003906 -50.76648438 36.12960938 -50.125 35.5625 C-49.57070312 35.06878906 -49.01640625 34.57507813 -48.4453125 34.06640625 C-47 33 -47 33 -45 33 C-45 32.34 -45 31.68 -45 31 C-43.62900809 30.04030566 -42.24944969 29.09120051 -40.8359375 28.1953125 C-37.42872746 25.97700128 -34.23646697 23.45776815 -31 21 C-26.41639623 17.51921819 -21.81411354 14.16030819 -17 11 C-15.35100679 9.83780386 -13.70501988 8.67132698 -12.0625 7.5 C-8.14867737 4.74670571 -4.20268728 2.28406917 0 0 Z " fill="#0B5A2E" transform="translate(138,157)"/>
<path d="M0 0 C-0.44170224 6.29425687 -1.72134117 12.0417678 -3.41259766 18.11938477 C-4.93620353 23.6295529 -6.15488731 29.17709022 -7.2890625 34.78125 C-7.52367187 35.8434375 -7.75828125 36.905625 -8 38 C-8.09925781 39.19109375 -8.19851563 40.3821875 -8.30078125 41.609375 C-10.3544717 45.70731365 -11.39620636 45.94104074 -15.56640625 47.546875 C-17.88917178 48.31005039 -20.22191531 49.04336026 -22.5625 49.75 C-23.71814453 50.12253906 -24.87378906 50.49507813 -26.06445312 50.87890625 C-28.33429856 51.60845339 -30.60780231 52.32672705 -32.88500977 53.03295898 C-39.7889162 55.17625966 -46.62006263 57.53510481 -53.4375 59.9375 C-54.17685791 60.19764893 -54.91621582 60.45779785 -55.67797852 60.72583008 C-59.63607984 62.12875084 -63.55294513 63.58942363 -67.4375 65.1875 C-70.4101425 66.40628343 -73.34758321 67.43420174 -76.4375 68.3125 C-82.55700939 70.05533627 -88.46917553 72.37133637 -94.40014648 74.66333008 C-95.19364502 74.96392334 -95.98714355 75.2645166 -96.8046875 75.57421875 C-97.87178955 75.98546997 -97.87178955 75.98546997 -98.96044922 76.4050293 C-101 77 -101 77 -105 77 C-108.96796809 69.78855238 -112.83489842 62.60803919 -116 55 C-108.57554695 51.0604943 -100.81289887 48.06225909 -93 45 C-87.35311655 42.77500516 -81.75269875 40.49417409 -76.21875 38 C-73.96502257 36.98423552 -71.70156653 35.99246752 -69.4375 35 C-65.9387621 33.4483858 -62.51573079 31.78703394 -59.1171875 30.02734375 C-57.45519593 29.22087921 -55.75806889 28.48677814 -54.05078125 27.78125 C-48.3256409 25.34594043 -42.8347414 22.42035279 -37.3125 19.5625 C-36.72194824 19.25785828 -36.13139648 18.95321655 -35.52294922 18.63934326 C-26.46864233 13.95845243 -17.63811297 8.98301933 -9.00512695 3.55688477 C-8.25062256 3.08694092 -7.49611816 2.61699707 -6.71875 2.1328125 C-5.74325195 1.51237061 -5.74325195 1.51237061 -4.74804688 0.87939453 C-3 0 -3 0 0 0 Z " fill="#EB5729" transform="translate(361,212)"/>
<path d="M0 0 C123.09 0 246.18 0 373 0 C373 1.65 373 3.3 373 5 C249.91 5 126.82 5 0 5 C0 3.35 0 1.7 0 0 Z " fill="#D9D1CC" transform="translate(62,405)"/>
<path d="M0 0 C6.6 0 13.2 0 20 0 C22.14643011 3.79132996 24.29217113 7.58304698 26.4375 11.375 C27.04916016 12.45523437 27.66082031 13.53546875 28.29101562 14.6484375 C29.1659668 16.1953125 29.1659668 16.1953125 30.05859375 17.7734375 C30.59798584 18.72653809 31.13737793 19.67963867 31.69311523 20.66162109 C32.49216491 22.09134233 33.26752704 23.53505407 34 25 C34 18.4 34 11.8 34 5 C32.35 4.34 30.7 3.68 29 3 C29 2.01 29 1.02 29 0 C35.93 0 42.86 0 50 0 C50 0.99 50 1.98 50 3 C49.0409375 3.7115625 49.0409375 3.7115625 48.0625 4.4375 C45.54573625 6.3441392 45.4990214 6.94329441 45 10 C44.80037199 14.40389444 44.81419409 18.80897075 44.81469727 23.21679688 C44.81251438 25.36088012 44.79434875 27.50444541 44.77539062 29.6484375 C44.77245546 31.02343575 44.77047149 32.39843643 44.76953125 33.7734375 C44.76542236 35.01528809 44.76131348 36.25713867 44.75708008 37.53662109 C45.00464812 41.06626956 45.55044878 43.77388123 47 47 C47.99 47.33 48.98 47.66 50 48 C50 49.32 50 50.64 50 52 C34.11113389 53.66454788 34.11113389 53.66454788 29.5625 50.078125 C27.75398108 47.13928175 26.39562457 44.15625864 25 41 C23.42119239 38.22928089 21.73838642 35.52527045 20.0625 32.8125 C19.28000773 31.50803329 18.49984323 30.20216573 17.72265625 28.89453125 C17.15417969 27.93933594 16.58570313 26.98414063 16 26 C15.88391274 29.27053517 15.81279289 32.5405418 15.75 35.8125 C15.71648437 36.74126953 15.68296875 37.67003906 15.6484375 38.62695312 C15.63554687 39.51962891 15.62265625 40.41230469 15.609375 41.33203125 C15.58842773 42.15421143 15.56748047 42.9763916 15.54589844 43.82348633 C16.15949656 46.76446873 17.61396823 47.31426797 20 49 C20 49.99 20 50.98 20 52 C13.73 52 7.46 52 1 52 C1 51.01 1 50.02 1 49 C1.48666641 48.5248999 1.97333282 48.0497998 2.4747467 47.56030273 C5.19082123 44.78181439 4.4463241 40.74875623 4.43359375 37.0625 C4.4388356 36.18601807 4.44407745 35.30953613 4.44947815 34.40649414 C4.45589994 32.55388447 4.4545593 30.70123404 4.44604492 28.84863281 C4.43753099 26.01033159 4.46629911 23.17403999 4.49804688 20.3359375 C4.49965884 18.53645894 4.49908144 16.7369768 4.49609375 14.9375 C4.50732773 14.08744385 4.51856171 13.2373877 4.53013611 12.36157227 C4.54395974 9.69513627 4.54395974 9.69513627 4 6 C2.09006561 4.10152575 2.09006561 4.10152575 0 3 C0 2.01 0 1.02 0 0 Z " fill="#0B5B2F" transform="translate(190,334)"/>
<path d="M0 0 C13.59213962 -1.50061839 13.59213962 -1.50061839 20 0 C23.90904383 3.40303673 25.31900932 7.17526183 27 12 C27.74752188 13.55310372 28.51472304 15.09710208 29.3125 16.625 C29.869375 17.73875 30.42625 18.8525 31 20 C31.66 20.66 32.32 21.32 33 22 C33.625 24.125 33.625 24.125 34 26 C34.13530844 22.93601549 34.2342407 19.87802874 34.3125 16.8125 C34.35439453 15.94818359 34.39628906 15.08386719 34.43945312 14.19335938 C34.55580517 8.61715249 34.55580517 8.61715249 31.48046875 4.01171875 C30.66191406 3.34785156 29.84335937 2.68398438 29 2 C29 1.34 29 0.68 29 0 C35.93 0 42.86 0 50 0 C50 0.99 50 1.98 50 3 C48.68 3.33 47.36 3.66 46 4 C44.69770266 7.96989592 44.83812359 11.99566253 44.83203125 16.125 C44.82870285 16.90891113 44.82537445 17.69282227 44.82194519 18.50048828 C44.81689233 20.15461644 44.81453636 21.80875475 44.81469727 23.46289062 C44.81250775 25.99105588 44.79432669 28.5187867 44.77539062 31.046875 C44.77245695 32.65624851 44.77047198 34.26562409 44.76953125 35.875 C44.76234573 36.6292627 44.75516022 37.38352539 44.74775696 38.16064453 C44.76414081 41.92844894 44.88910728 44.80411784 47 48 C47.99 48 48.98 48 50 48 C50 49.32 50 50.64 50 52 C43.73 52 37.46 52 31 52 C30.360625 50.845 29.72125 49.69 29.0625 48.5 C26.46525875 43.82945666 23.86113918 39.16278561 21.25 34.5 C20.64877319 33.42202148 20.64877319 33.42202148 20.03540039 32.32226562 C18.29884079 28.95999258 18.29884079 28.95999258 16 26 C15.88355844 29.08301416 15.81267568 32.16546123 15.75 35.25 C15.71648437 36.12269531 15.68296875 36.99539063 15.6484375 37.89453125 C15.45399071 43.09039856 15.45399071 43.09039856 18.015625 47.421875 C18.67046875 47.94265625 19.3253125 48.4634375 20 49 C20 49.99 20 50.98 20 52 C13.73 52 7.46 52 1 52 C1 49 1 49 2.4375 47.4375 C2.953125 46.963125 3.46875 46.48875 4 46 C6.38236624 41.23526752 5.3122546 34.03941402 5.35009766 28.74291992 C5.36664824 27.04453826 5.39392685 25.34622599 5.43212891 23.64819336 C5.48699658 21.19608537 5.50878513 18.74560853 5.5234375 16.29296875 C5.54610687 15.53759323 5.56877625 14.78221771 5.59213257 14.00395203 C5.57574358 9.8986268 5.24871176 8.27798466 2.46728516 5.16918945 C1.65308105 4.45335693 0.83887695 3.73752441 0 3 C0 2.01 0 1.02 0 0 Z " fill="#0B5B2F" transform="translate(273,334)"/>
<path d="M0 0 C2.93044182 1.46868479 5.7900071 2.99842694 8.6171875 4.65625 C8.6171875 5.31625 8.6171875 5.97625 8.6171875 6.65625 C9.6071875 6.98625 10.5971875 7.31625 11.6171875 7.65625 C15.33119473 14.61225016 17.11773423 22.19884754 15.00390625 29.88671875 C13.86319415 33.09826205 12.50872896 35.81893781 10.6171875 38.65625 C9.9571875 38.65625 9.2971875 38.65625 8.6171875 38.65625 C8.2871875 39.64625 7.9571875 40.63625 7.6171875 41.65625 C0.07589068 46.49406306 -6.39398727 47.60826844 -15.3828125 46.65625 C-22.78398397 44.44416803 -27.62525226 40.35892502 -31.3828125 33.65625 C-33.20266271 29.86697285 -33.6542109 26.85033619 -33.6328125 22.65625 C-33.63796875 21.645625 -33.643125 20.635 -33.6484375 19.59375 C-33.11796694 13.72736967 -30.28874848 8.9620062 -26.3828125 4.65625 C-18.4932484 -1.19322087 -9.31208428 -3.69902655 0 0 Z M-13.3828125 12.65625 C-15.35099586 18.47879243 -16.78495479 23.49006819 -16.3828125 29.65625 C-11.75170259 31.12978497 -7.92048074 30.10497344 -3.3828125 28.65625 C-0.90577882 27.20326125 -0.90577882 27.20326125 0.6171875 25.65625 C-1.11554304 20.14301647 -4.33906156 17.03459366 -9.0703125 13.84375 C-11.24607162 12.50398177 -11.24607162 12.50398177 -13.3828125 12.65625 Z " fill="#B4A9A6" transform="translate(276.3828125,424.34375)"/>
<path d="M0 0 C4.3049777 -0.07451364 8.60960734 -0.12877223 12.91503906 -0.16479492 C14.37767075 -0.17982196 15.84025782 -0.20024955 17.30273438 -0.22631836 C19.4128728 -0.26297267 21.52241226 -0.27978676 23.6328125 -0.29296875 C24.90012207 -0.3086792 26.16743164 -0.32438965 27.47314453 -0.34057617 C31.31551692 0.03046837 33.6883422 1.06819962 37 3 C37.97839844 3.56847656 37.97839844 3.56847656 38.9765625 4.1484375 C45.02312798 8.64754072 46.76327768 14.768041 48 22 C48.27114835 29.2335382 46.91250489 35.41520633 44 42 C43.34 42 42.68 42 42 42 C41.75121094 42.60457031 41.50242187 43.20914063 41.24609375 43.83203125 C39.80202545 46.34443848 38.53864187 47.22579242 36.0625 48.6875 C35.37285156 49.10386719 34.68320312 49.52023437 33.97265625 49.94921875 C30.0015004 52.06454731 26.79594902 52.11701288 22.36328125 52.09765625 C21.06455078 52.09443359 19.76582031 52.09121094 18.42773438 52.08789062 C17.05598892 52.07953531 15.68424413 52.07107037 14.3125 52.0625 C12.92903805 52.05748335 11.54557437 52.05292073 10.16210938 52.04882812 C6.77469605 52.03702529 3.38736967 52.02056019 0 52 C0 51.01 0 50.02 0 49 C1.98 48.505 1.98 48.505 4 48 C4 33.48 4 18.96 4 4 C2.68 3.67 1.36 3.34 0 3 C0 2.01 0 1.02 0 0 Z M19 11 C18.78181754 15.09742993 18.81420884 19.1980264 18.81469727 23.30078125 C18.81251633 25.35958694 18.79437969 27.41785212 18.77539062 29.4765625 C18.77345703 30.77078125 18.77152344 32.065 18.76953125 33.3984375 C18.76542236 34.59130371 18.76131348 35.78416992 18.75708008 37.01318359 C18.7716698 40.18338301 18.7716698 40.18338301 21 43 C24.28144681 42.71873313 25.9504684 42.03655904 28.625 40.0625 C32.6975275 34.81108296 34.40365761 28.96377324 33.9375 22.3125 C33.22558732 17.85909071 31.54502982 14.70186156 29 11 C26.30891695 9.65445847 21.3130459 8.6869541 19 11 Z " fill="#0B5B2F" transform="translate(326,334)"/>
<path d="M0 0 C4.29 0 8.58 0 13 0 C13.96400982 2.49793739 14.92127547 4.99813659 15.875 7.5 C16.14441406 8.19609375 16.41382813 8.8921875 16.69140625 9.609375 C18.2336886 13.6719724 19.47772566 17.68353047 20.47705078 21.91064453 C21.47278432 25.88893006 22.75458259 29.78169838 24 33.6875 C24.39058594 34.92983398 24.39058594 34.92983398 24.7890625 36.19726562 C26.63120675 42.19933397 26.63120675 42.19933397 29 48 C29.99 48.495 29.99 48.495 31 49 C31 49.99 31 50.98 31 52 C23.41 52 15.82 52 8 52 C8 51.01 8 50.02 8 49 C8.99 49 9.98 49 11 49 C10.855625 48.13375 10.71125 47.2675 10.5625 46.375 C10.04166667 43.25 9.52083333 40.125 9 37 C5.04 37 1.08 37 -3 37 C-3.33 40.63 -3.66 44.26 -4 48 C-3.01 48.33 -2.02 48.66 -1 49 C-1 49.99 -1 50.98 -1 52 C-6.94 52 -12.88 52 -19 52 C-19 49 -19 49 -17.61889648 47.60302734 C-17.08466064 47.07402832 -16.5504248 46.5450293 -16 46 C-14.93423304 43.82005691 -14.93423304 43.82005691 -14.09765625 41.3515625 C-13.76660889 40.43463623 -13.43556152 39.51770996 -13.09448242 38.57299805 C-12.75392822 37.60015869 -12.41337402 36.62731934 -12.0625 35.625 C-11.70841064 34.63218018 -11.35432129 33.63936035 -10.98950195 32.61645508 C-8.77463295 26.35655465 -6.69285721 20.07724422 -4.8046875 13.7109375 C-1.80851064 3.61702128 -1.80851064 3.61702128 0 0 Z M3 18 C2.34 21.3 1.68 24.6 1 28 C2.98 28 4.96 28 7 28 C6.01 24.7 5.02 21.4 4 18 C3.67 18 3.34 18 3 18 Z " fill="#0B5B2F" transform="translate(429,334)"/>
<path d="M0 0 C8.25 0 16.5 0 25 0 C24.34 1.32 23.68 2.64 23 4 C23.31894906 8.14633775 25.0348581 11.23177069 27.0625 14.8125 C27.61035156 15.78832031 28.15820312 16.76414062 28.72265625 17.76953125 C29.14417969 18.50558594 29.56570313 19.24164063 30 20 C32.37482656 14.68376389 34.72013426 9.3576845 37 4 C34.525 3.01 34.525 3.01 32 2 C32 1.34 32 0.68 32 0 C38.6 0 45.2 0 52 0 C51.67 0.99 51.34 1.98 51 3 C50.0409375 3.1546875 50.0409375 3.1546875 49.0625 3.3125 C48.381875 3.539375 47.70125 3.76625 47 4 C46.31237624 5.99289187 45.65094158 7.99482681 45 10 C43.76893621 12.62559269 42.407169 15.18111681 41.0625 17.75 C36.80891169 26.09680793 32.70030197 34.414727 34 44 C36.39583651 46.81331378 36.39583651 46.81331378 39 49 C39 49.99 39 50.98 39 52 C30.75 52 22.5 52 14 52 C14 51.01 14 50.02 14 49 C14.64453125 48.40703125 15.2890625 47.8140625 15.953125 47.203125 C19.37756954 43.51727248 18.77936496 39.83424466 18.6484375 35 C17.78656378 27.63952574 13.65717849 21.29224859 10 15 C9.14535156 13.43378906 9.14535156 13.43378906 8.2734375 11.8359375 C5.24909149 6.25617835 5.24909149 6.25617835 0 3 C0 2.01 0 1.02 0 0 Z " fill="#0B5B2F" transform="translate(368,334)"/>
<path d="M0 0 C2.51625 -0.103125 5.0325 -0.20625 7.625 -0.3125 C8.79603271 -0.38078003 8.79603271 -0.38078003 9.99072266 -0.45043945 C13.95686214 -0.52847342 16.3332651 -0.1507921 19.4609375 2.39453125 C22.77273815 5.79294823 23.14926422 7.52037278 23.5625 12.125 C23.68818359 13.49011719 23.68818359 13.49011719 23.81640625 14.8828125 C23.87699219 15.58148438 23.93757813 16.28015625 24 17 C23.625 13.75 23.625 13.75 24 10 C26.94906288 7.26158447 29.03504956 6.16082507 33 5.5 C36.76224213 6.12704035 38.99388153 7.70962402 42 10 C42.5259375 9.2884375 42.5259375 9.2884375 43.0625 8.5625 C45.95605843 6.22898513 48.3333943 6.12643468 52 6 C54.37633793 7.13650944 56.14441029 8.14441029 58 10 C58.08669432 11.4887186 58.10703494 12.981445 58.09765625 14.47265625 C58.09443359 15.37177734 58.09121094 16.27089844 58.08789062 17.19726562 C58.07532227 18.61555664 58.07532227 18.61555664 58.0625 20.0625 C58.05798828 21.01189453 58.05347656 21.96128906 58.04882812 22.93945312 C58.0370011 25.29303065 58.02052025 27.64648477 58 30 C56.35 30 54.7 30 53 30 C52.67 24.39 52.34 18.78 52 13 C50.68 13 49.36 13 48 13 C47.67 18.61 47.34 24.22 47 30 C45.02 30 43.04 30 41 30 C40.505 28.515 40.505 28.515 40 27 C39.46375 27.474375 38.9275 27.94875 38.375 28.4375 C35.43653853 30.37069834 33.51574406 30.85937024 30 31 C26.57053453 29.74692608 24.58668727 28.9333661 22.625 25.8125 C22.41875 25.214375 22.2125 24.61625 22 24 C21.236875 24.804375 20.47375 25.60875 19.6875 26.4375 C13.55704698 32.28281567 9.97634607 30 0 30 C0 20.1 0 10.2 0 0 Z M6 6 C6 11.94 6 17.88 6 24 C13.35408289 24.81623092 13.35408289 24.81623092 15.9375 22.5 C17.40680556 19.04281044 18.150568 15.74269023 18 12 C16.71005207 8.58025081 16.71005207 8.58025081 15 6 C12.03 6 9.06 6 6 6 Z M31 11 C30.34 12.65 29.68 14.3 29 16 C30.98 15.67 32.96 15.34 35 15 C35.33 14.01 35.66 13.02 36 12 C34.35 11.67 32.7 11.34 31 11 Z M29 21 C29 22.32 29 23.64 29 25 C30.65 25 32.3 25 34 25 C34.66 23.35 35.32 21.7 36 20 C32.37114676 19.84850702 32.37114676 19.84850702 29 21 Z " fill="#07519F" transform="translate(297,432)"/>
<path d="M0 0 C8.58 0 17.16 0 26 0 C26 0.99 26 1.98 26 3 C25.360625 3.28875 24.72125 3.5775 24.0625 3.875 C21.84793921 4.82823451 21.84793921 4.82823451 21 7 C20.90096365 9.72480758 20.86017385 12.42347888 20.8671875 15.1484375 C20.86623077 15.95737457 20.86527405 16.76631165 20.86428833 17.59976196 C20.86360722 19.31292804 20.86545673 21.02609668 20.86962891 22.73925781 C20.8749643 25.35748124 20.86968879 27.97553203 20.86328125 30.59375 C20.86394232 32.25781288 20.86522407 33.92187565 20.8671875 35.5859375 C20.86516327 36.36834808 20.86313904 37.15075867 20.86105347 37.95687866 C20.87616467 41.47566361 21.05454488 44.61474393 22 48 C23.32 48.33 24.64 48.66 26 49 C26 49.99 26 50.98 26 52 C17.42 52 8.84 52 0 52 C0 51.01 0 50.02 0 49 C0.81275391 48.2879541 1.62550781 47.5759082 2.46289062 46.84228516 C5.75511665 43.15405427 5.69348065 40.23228025 5.59375 35.5234375 C5.59379028 34.7163736 5.59383057 33.90930969 5.59387207 33.07778931 C5.5885275 31.37827735 5.57099002 29.67876514 5.54199219 27.97949219 C5.50001915 25.37618767 5.5009351 22.77546191 5.5078125 20.171875 C5.49732334 18.51821117 5.48438671 16.86456067 5.46875 15.2109375 C5.46854858 14.43277679 5.46834717 13.65461609 5.46813965 12.85287476 C5.41126008 8.6879831 5.41126008 8.6879831 3.59570312 5.04931641 C1.97331076 3.93758456 1.97331076 3.93758456 0 3 C0 2.01 0 1.02 0 0 Z " fill="#0B5B2F" transform="translate(244,334)"/>
<path d="M0 0 C2.5625 2.0625 2.5625 2.0625 4 4 C5.299375 2.7625 5.299375 2.7625 6.625 1.5 C9.17890641 -0.65865899 9.86639751 -0.9876294 13.375 -1.3125 C14.24125 -1.209375 15.1075 -1.10625 16 -1 C16.33 -0.01 16.66 0.98 17 2 C17.515625 1.505 18.03125 1.01 18.5625 0.5 C21.93763128 -1.57700386 24.09800946 -1.47919182 28 -1 C31.06519243 0.79913468 32.6253525 1.93369557 33.8125 5.3125 C34.52066116 15.46280992 34.52066116 15.46280992 32 20 C29.58214737 22.59695282 28.17007569 22.9748036 24.625 23.5 C21.02009198 23.00277131 18.8526281 22.26120898 16.15625 19.765625 C13.35832097 15.49311175 14 9.9229364 14 5 C10.88214887 5.64644661 10.88214887 5.64644661 10 8 C9.76827173 10.54615009 9.58105471 13.07396225 9.4375 15.625 C9.39431641 16.33140625 9.35113281 17.0378125 9.30664062 17.765625 C9.20055249 19.51018537 9.09977111 21.25506697 9 23 C7.02 23 5.04 23 3 23 C2.67 22.01 2.34 21.02 2 20 C1.46375 20.474375 0.9275 20.94875 0.375 21.4375 C-2.5234292 23.34436132 -4.54525996 23.7884853 -8 24 C-11.84624466 22.95102418 -12.73691641 22.39462539 -15 19 C-15.33333333 12.66666667 -15.33333333 12.66666667 -14 10 C-14.0825 8.700625 -14.165 7.40125 -14.25 6.0625 C-14.27058794 2.28804522 -14.27058794 2.28804522 -12.0625 -0.0625 C-7.82972147 -1.35824853 -4.25539055 -1.20675254 0 0 Z M-9 5 C-9 6.32 -9 7.64 -9 9 C-7.02 8.67 -5.04 8.34 -3 8 C-3.33 6.68 -3.66 5.36 -4 4 C-6.9254644 3.7763932 -6.9254644 3.7763932 -9 5 Z M23 4 C21.28288757 6.44496043 21.28288757 6.44496043 20 9 C22.64 9 25.28 9 28 9 C27.34 7.35 26.68 5.7 26 4 C25.01 4 24.02 4 23 4 Z M-8 13 C-8.66 14.32 -9.32 15.64 -10 17 C-6.41672247 18.00217064 -6.41672247 18.00217064 -3 17 C-3 15.68 -3 14.36 -3 13 C-4.65 13 -6.3 13 -8 13 Z M20 13 C20.66 14.65 21.32 16.3 22 18 C24.44480079 17.81171228 24.44480079 17.81171228 27 17 C27.66 15.68 28.32 14.36 29 13 C26.03 13 23.06 13 20 13 Z " fill="#07519F" transform="translate(371,439)"/>
<path d="M0 0 C1.65 0 3.3 0 5 0 C5.33 4.29 5.66 8.58 6 13 C6.969375 12.01 7.93875 11.02 8.9375 10 C11.97273148 7.34960359 13.84407816 6.60365683 17.875 6.6875 C18.63554687 6.75324219 19.39609375 6.81898438 20.1796875 6.88671875 C21.08074219 6.94279297 21.08074219 6.94279297 22 7 C22.33 6.67 22.66 6.34 23 6 C27.54066511 5.62161124 29.97016358 5.44217194 34 7.625 C36 10 36 10 36.3125 13.125 C36.209375 14.07375 36.10625 15.0225 36 16 C36 17.96110177 36.15485842 19.92024445 36.3125 21.875 C36.29452307 25.17076982 36.16211381 25.79735774 34 28.5 C29.9772684 30.5113658 27.47665229 30.28881628 23 30 C20.01225726 29.90194193 20.01225726 29.90194193 17.1875 30.5625 C14 30 14 30 12.3828125 27.99609375 C11.34472382 26.34599756 10.34729016 24.66954276 9.39453125 22.96875 C8.93433594 22.3190625 8.47414063 21.669375 8 21 C7.01 21 6.02 21 5 21 C5 23.97 5 26.94 5 30 C3.35 30 1.7 30 0 30 C0 20.1 0 10.2 0 0 Z M17 10 C16.67 10.99 16.34 11.98 16 13 C15.34 13 14.68 13 14 13 C14 13.66 14 14.32 14 15 C13.01 15.495 13.01 15.495 12 16 C12.80814651 17.33597652 13.62163181 18.668725 14.4375 20 C14.88996094 20.7425 15.34242188 21.485 15.80859375 22.25 C16.39833984 23.11625 16.39833984 23.11625 17 24 C17.33 24 17.66 24 18 24 C18 22.35 18 20.7 18 19 C18.99 18.67 19.98 18.34 21 18 C20.67 17.67 20.34 17.34 20 17 C19.63239269 14.67182036 19.29758419 12.3381615 19 10 C18.34 10 17.68 10 17 10 Z M25 11 C24.67 11.99 24.34 12.98 24 14 C26.97 14.495 26.97 14.495 30 15 C29.67 13.68 29.34 12.36 29 11 C27.68 11 26.36 11 25 11 Z M24 20 C24.33 21.32 24.66 22.64 25 24 C26.98 24.495 26.98 24.495 29 25 C29.66 24.01 30.32 23.02 31 22 C28.04622502 19.63019987 28.04622502 19.63019987 24 20 Z " fill="#07519F" transform="translate(406,432)"/>
<path d="M0 0 C3 1 3 1 4.16796875 3.1875 C7.67613387 12.86519689 8.23766468 19.54674802 4 29 C3.34 29.99 2.68 30.98 2 32 C1.34 32 0.68 32 0 32 C-0.33 32.99 -0.66 33.98 -1 35 C-7.96025841 39.68478932 -7.96025841 39.68478932 -13 39 C-15.38671875 37.390625 -15.38671875 37.390625 -17.6875 35.25 C-18.45449219 34.55390625 -19.22148437 33.8578125 -20.01171875 33.140625 C-22.84335016 30.09203166 -24 28.1826691 -24 24 C-23.20335937 23.82984375 -22.40671875 23.6596875 -21.5859375 23.484375 C-11.78439127 21.25189314 -11.78439127 21.25189314 -4.25 14.9375 C-2.63593001 11.14443553 -2.0489051 7.39106151 -1.4296875 3.328125 C-1 1 -1 1 0 0 Z " fill="#D8CFCC" transform="translate(285,431)"/>
<path d="M0 0 C5 1 5 1 7.01953125 3.28515625 C7.61121094 4.20167969 8.20289063 5.11820312 8.8125 6.0625 C9.41707031 6.98160156 10.02164063 7.90070313 10.64453125 8.84765625 C11.09183594 9.55792969 11.53914063 10.26820313 12 11 C12.99 10.67 13.98 10.34 15 10 C15.72904086 8.35965807 16.38655243 6.68698082 17 5 C18.25 2.1875 18.25 2.1875 20 0 C21.98 0 23.96 0 26 0 C26 8.91 26 17.82 26 27 C24.02 27 22.04 27 20 27 C19.67 22.38 19.34 17.76 19 13 C17.35 15.31 15.7 17.62 14 20 C10 19 10 19 6 14 C5.67 18.29 5.34 22.58 5 27 C3.35 27 1.7 27 0 27 C0 18.09 0 9.18 0 0 Z " fill="#07519F" transform="translate(40,433)"/>
<path d="M0 0 C-0.33 2.64 -0.66 5.28 -1 8 C-7.8420788 10.96004827 -14.68111644 13.60936088 -21.77734375 15.890625 C-26.79332874 17.61733983 -31.66369595 19.67957527 -36.5546875 21.73046875 C-39.74403941 22.90568346 -42.63799182 23.57332312 -46 24 C-49.01464084 19.6589172 -49.01464084 19.6589172 -48.95507812 16.97827148 C-48 15 -48 15 -45.49414062 13.70727539 C-44.39263672 13.34110107 -43.29113281 12.97492676 -42.15625 12.59765625 C-40.32670776 11.97769775 -40.32670776 11.97769775 -38.46020508 11.34521484 C-37.14034193 10.91701019 -35.82026962 10.48944975 -34.5 10.0625 C-33.17111208 9.62037202 -31.84257976 9.1771738 -30.5144043 8.73291016 C-4.24497424 0 -4.24497424 0 0 0 Z " fill="#0B5A2E" transform="translate(302,86)"/>
<path d="M0 0 C0.598125 -0.33 1.19625 -0.66 1.8125 -1 C4.92763816 -2.42406316 6.75134771 -1.94752359 10 -1 C12.171875 0.5390625 12.171875 0.5390625 14 3 C14.2906124 5.89449949 14.38186045 8.37949935 14.25 11.25 C14.23195313 11.99507813 14.21390625 12.74015625 14.1953125 13.5078125 C14.14835649 15.33909701 14.07661652 17.16971649 14 19 C12.35 19 10.7 19 9 19 C8.67 14.05 8.34 9.1 8 4 C6.02 4 4.04 4 2 4 C1.67 8.95 1.34 13.9 1 19 C-0.65 19 -2.3 19 -4 19 C-4.06058594 18.08476562 -4.12117188 17.16953125 -4.18359375 16.2265625 C-4.30927734 14.44378906 -4.30927734 14.44378906 -4.4375 12.625 C-4.51871094 11.44164062 -4.59992188 10.25828125 -4.68359375 9.0390625 C-4.81084936 6.08481099 -4.81084936 6.08481099 -6 4 C-7.32 4 -8.64 4 -10 4 C-10.66 8.95 -11.32 13.9 -12 19 C-13.65 19 -15.3 19 -17 19 C-17 12.4 -17 5.8 -17 -1 C-6.5 -2.16666667 -6.5 -2.16666667 0 0 Z " fill="#07519F" transform="translate(107,441)"/>
<path d="M0 0 C1.65 0 3.3 0 5 0 C5.33 2.97 5.66 5.94 6 9 C6.99 8.34 7.98 7.68 9 7 C12.93827328 7.14320994 15.25102816 7.40870644 18.375 9.875 C21.34943844 13.76465027 21.25031257 17.24406121 21 22 C20.12315872 24.86966237 19.26347323 25.79803615 16.875 27.62890625 C11.50850784 30.18819803 5.77194042 28.59337705 0 28 C0 18.76 0 9.52 0 0 Z M6.75 13.625 C4.68114866 15.92779775 4.68114866 15.92779775 5.0625 19.125 C5.76694687 22.29174932 5.76694687 22.29174932 9 24 C11.58333333 23.91666667 11.58333333 23.91666667 14 23 C16.14762184 19.77856724 16.561068 18.7404533 16 15 C14.26961928 13.09798258 14.26961928 13.09798258 12 12 C8.94276455 11.70725472 8.94276455 11.70725472 6.75 13.625 Z " fill="#07519F" transform="translate(124,432)"/>
<path d="M0 0 C2.65234375 1.52734375 2.65234375 1.52734375 5 4 C5.48722793 6.90521003 5.65912572 9.11689757 5.5625 12 C5.57345703 12.7115625 5.58441406 13.423125 5.59570312 14.15625 C5.54701446 17.6358663 5.26964008 19.64389306 3.1484375 22.4453125 C0.36273625 24.46114722 -1.57410342 24.86016749 -5 25 C-8.13356684 24.07417343 -9.68468695 23.31531305 -12 21 C-12.23046875 18.87109375 -12.23046875 18.87109375 -12.1875 16.4375 C-12.18105469 15.63183594 -12.17460937 14.82617188 -12.16796875 13.99609375 C-12 12 -12 12 -11 11 C-11.0825 9.72125 -11.165 8.4425 -11.25 7.125 C-11.2734375 4.9453125 -11.2734375 4.9453125 -11 3 C-7.64797534 -0.15484674 -4.48902243 -0.6546491 0 0 Z M-5 5 C-5.66 6.65 -6.32 8.3 -7 10 C-5.02 9.67 -3.04 9.34 -1 9 C-0.67 8.01 -0.34 7.02 0 6 C-1.65 5.67 -3.3 5.34 -5 5 Z M-7 15 C-7 16.32 -7 17.64 -7 19 C-4.58354218 19.16687448 -4.58354218 19.16687448 -2 19 C-1.34 18.34 -0.68 17.68 0 17 C0 16.01 0 15.02 0 14 C-3.62885324 13.84850702 -3.62885324 13.84850702 -7 15 Z " fill="#07519F" transform="translate(455,438)"/>
<path d="M0 0 C5.14043913 3.88388734 5.0190543 5.13338007 6 12 C1.05 12 -3.9 12 -9 12 C-9 12.66 -9 13.32 -9 14 C-2.474566 15.00392976 -2.474566 15.00392976 4 14 C4.33 15.32 4.66 16.64 5 18 C0.80590318 20.39662675 -2.1541913 21.70668044 -7 21 C-9.5647293 19.49987532 -11.89183465 18.10816535 -14 16 C-14.42773065 11.96100056 -14.49468312 8.03357004 -14 4 C-9.96449341 -0.68991307 -5.87651099 -1.64542308 0 0 Z M-6 4 C-7.70532323 5.94009522 -7.70532323 5.94009522 -9 8 C-6.03 8 -3.06 8 0 8 C-1.29467677 5.94009522 -1.29467677 5.94009522 -3 4 C-3.99 4 -4.98 4 -6 4 Z " fill="#07519F" transform="translate(83,440)"/>
<path d="M0 0 C2.76772751 3.28026965 2.44322081 6.78618405 2.6875 11 C-3.7475 11.495 -3.7475 11.495 -10.3125 12 C-8.50893748 14.23532813 -8.50893748 14.23532813 -6 14.1875 C-3.35879791 14.00323009 -0.89127091 13.58943335 1.6875 13 C1.4375 15.375 1.4375 15.375 0.6875 18 C-2.42025589 20.41714347 -5.49217165 20.4584394 -9.3125 20 C-12.66018735 18.26177772 -14.75003452 16.90483578 -16.75 13.6875 C-17.50903674 10.06099111 -17.27256591 7.58424608 -16.3125 4 C-11.35842426 -1.99703905 -7.18036602 -3.10502314 0 0 Z M-8.3125 3 C-10.01782323 4.94009522 -10.01782323 4.94009522 -11.3125 7 C-8.3425 7 -5.3725 7 -2.3125 7 C-3.60717677 4.94009522 -3.60717677 4.94009522 -5.3125 3 C-6.3025 3 -7.2925 3 -8.3125 3 Z " fill="#07519F" transform="translate(163.3125,441)"/>
<path d="M0 0 C3.4375 1.9375 3.4375 1.9375 6 5 C6.73486486 8.46676707 6.6931378 11.52843696 6 15 C3.88743677 18.01794747 1.47181389 19.77465392 -2 21 C-6.04731569 21.52791074 -7.71493159 21.16135948 -11.3125 19.125 C-14 17 -14 17 -15 15 C-15.16796875 12.9765625 -15.16796875 12.9765625 -15.1875 10.625 C-15.20167969 9.85414063 -15.21585938 9.08328125 -15.23046875 8.2890625 C-14.97198537 5.72175304 -14.37751164 4.17330384 -13 2 C-8.39566196 -1.10525124 -5.32927449 -1.52264986 0 0 Z M-7 4 C-9.26877535 6.41880929 -9.26877535 6.41880929 -11 9 C-9.92598892 11.91517292 -9.22189824 13.77810176 -7 16 C-4.22130072 15.7862539 -2.44844389 15.2989626 -0.125 13.75 C1.24291229 11.99537429 1.24291229 11.99537429 0.875 9.5 C-0.05957153 6.82979562 -0.69521989 5.6218823 -3 4 C-4.32 4 -5.64 4 -7 4 Z " fill="#07519F" transform="translate(208,440)"/>
<path d="M0 0 C0.51222435 6.5308605 -0.9419905 11.65796043 -2.9765625 17.85546875 C-4.17573733 21.53995632 -5.11300982 25.23029175 -6 29 C-11.22854613 22.21533894 -15.29067456 15.12797633 -18 7 C-4.48275862 0 -4.48275862 0 0 0 Z " fill="#BA2227" transform="translate(263,260)"/>
<path d="M0 0 C0 1.65 0 3.3 0 5 C-1.65 5 -3.3 5 -5 5 C-5 5.99 -5 6.98 -5 8 C-3.35 8 -1.7 8 0 8 C0 9.65 0 11.3 0 13 C-1.65 13 -3.3 13 -5 13 C-5 17.95 -5 22.9 -5 28 C-6.98 28 -8.96 28 -11 28 C-11 23.05 -11 18.1 -11 13 C-11.66 13 -12.32 13 -13 13 C-13 11.35 -13 9.7 -13 8 C-12.34 8 -11.68 8 -11 8 C-10.896875 7.236875 -10.79375 6.47375 -10.6875 5.6875 C-9.10312667 -0.50595936 -5.95858132 -0.33727819 0 0 Z " fill="#07519F" transform="translate(228,432)"/>
<path d="M0 0 C0 1.98 0 3.96 0 6 C-0.804375 6.28875 -1.60875 6.5775 -2.4375 6.875 C-5.1326468 7.73262568 -5.1326468 7.73262568 -6 10 C-6.2275015 11.87056791 -6.40962811 13.74685958 -6.5625 15.625 C-6.68818359 17.12933594 -6.68818359 17.12933594 -6.81640625 18.6640625 C-6.87699219 19.43492187 -6.93757812 20.20578125 -7 21 C-8.65 21 -10.3 21 -12 21 C-12 14.4 -12 7.8 -12 1 C-9.69 1 -7.38 1 -5 1 C-3 0 -3 0 0 0 Z " fill="#07519F" transform="translate(181,439)"/>
</svg>
