<?xml version="1.0" encoding="UTF-8"?>
<!DOCTYPE svg PUBLIC "-//W3C//DTD SVG 1.1//EN" "http://www.w3.org/Graphics/SVG/1.1/DTD/svg11.dtd">
<svg xmlns="http://www.w3.org/2000/svg" version="1.1" width="960px" height="224px" style="shape-rendering:geometricPrecision; text-rendering:geometricPrecision; image-rendering:optimizeQuality; fill-rule:evenodd; clip-rule:evenodd" xmlns:xlink="http://www.w3.org/1999/xlink">
<g><path style="opacity:0.991" fill="#ed1b2e" d="M 153.5,-0.5 C 179.5,-0.5 205.5,-0.5 231.5,-0.5C 240.189,1.10337 247.355,5.43671 253,12.5C 266.697,33.3657 280.197,54.3657 293.5,75.5C 266.811,76.9255 240.145,76.7589 213.5,75C 205.972,73.3211 199.805,69.4877 195,63.5C 180.897,42.2803 167.063,20.947 153.5,-0.5 Z"/></g>
<g><path style="opacity:0.983" fill="#006bb7" d="M 72.5,223.5 C 48.1667,223.5 23.8333,223.5 -0.5,223.5C -0.5,222.5 -0.5,221.5 -0.5,220.5C 22.4753,185.235 44.9753,149.568 67,113.5C 70.6976,106.592 75.8642,101.092 82.5,97C 86.3466,95.3844 90.3466,94.3844 94.5,94C 121.5,93.3333 148.5,93.3333 175.5,94C 169.922,98.9071 165.089,104.407 161,110.5C 139.917,145.001 118.584,179.334 97,213.5C 89.7435,219.302 81.5768,222.635 72.5,223.5 Z"/></g>
<g><path style="opacity:0.979" fill="#acc429" d="M 216.5,93.5 C 242.175,93.1669 267.842,93.5002 293.5,94.5C 279.137,115.698 264.97,137.031 251,158.5C 244.96,165.104 237.46,168.937 228.5,170C 203.502,170.5 178.502,170.667 153.5,170.5C 166.127,149.264 179.294,128.264 193,107.5C 198.996,99.5912 206.83,94.9245 216.5,93.5 Z"/></g>
<g><path style="opacity:0.978" fill="#072212" d="M 346.5,93.5 C 360.892,93.0696 375.226,93.5696 389.5,95C 402.566,100.076 408.066,109.576 406,123.5C 405.915,128.763 404.082,133.263 400.5,137C 389.853,143.896 378.186,146.396 365.5,144.5C 365.5,153.167 365.5,161.833 365.5,170.5C 359.167,170.5 352.833,170.5 346.5,170.5C 346.5,144.833 346.5,119.167 346.5,93.5 Z M 364.5,110.5 C 370.262,110.149 375.928,110.649 381.5,112C 388.341,117.66 388.008,122.994 380.5,128C 375.233,129.191 369.899,129.691 364.5,129.5C 364.5,123.167 364.5,116.833 364.5,110.5 Z"/></g>
<g><path style="opacity:0.986" fill="#072212" d="M 415.5,93.5 C 432.167,93.5 448.833,93.5 465.5,93.5C 465.5,98.8333 465.5,104.167 465.5,109.5C 455.167,109.5 444.833,109.5 434.5,109.5C 434.5,113.833 434.5,118.167 434.5,122.5C 444.5,122.5 454.5,122.5 464.5,122.5C 464.5,128.167 464.5,133.833 464.5,139.5C 454.5,139.5 444.5,139.5 434.5,139.5C 434.5,143.833 434.5,148.167 434.5,152.5C 444.833,152.5 455.167,152.5 465.5,152.5C 465.5,158.5 465.5,164.5 465.5,170.5C 448.833,170.5 432.167,170.5 415.5,170.5C 415.5,144.833 415.5,119.167 415.5,93.5 Z"/></g>
<g><path style="opacity:0.971" fill="#082212" d="M 481.5,93.5 C 495.906,93.0514 510.239,93.5514 524.5,95C 532.232,98.279 536.732,104.112 538,112.5C 540.689,125.958 535.522,134.791 522.5,139C 530.531,148.898 538.198,159.065 545.5,169.5C 537.833,170.833 530.167,170.833 522.5,169.5C 515.243,159.321 507.743,149.321 500,139.5C 499.5,149.828 499.334,160.161 499.5,170.5C 493.5,170.5 487.5,170.5 481.5,170.5C 481.5,144.833 481.5,119.167 481.5,93.5 Z M 499.5,108.5 C 505.616,108.158 511.449,109.158 517,111.5C 519.835,117.357 518.669,122.19 513.5,126C 508.934,127.309 504.267,127.809 499.5,127.5C 499.5,121.167 499.5,114.833 499.5,108.5 Z"/></g>
<g><path style="opacity:0.987" fill="#082212" d="M 545.5,93.5 C 565.167,93.5 584.833,93.5 604.5,93.5C 604.5,99.1667 604.5,104.833 604.5,110.5C 597.833,110.5 591.167,110.5 584.5,110.5C 584.5,130.5 584.5,150.5 584.5,170.5C 578.167,170.5 571.833,170.5 565.5,170.5C 565.5,150.5 565.5,130.5 565.5,110.5C 558.833,110.5 552.167,110.5 545.5,110.5C 545.5,104.833 545.5,99.1667 545.5,93.5 Z"/></g>
<g><path style="opacity:0.965" fill="#082212" d="M 625.5,93.5 C 632.422,93.1878 639.256,93.5212 646,94.5C 654.599,119.463 663.099,144.463 671.5,169.5C 664.858,170.664 658.192,170.831 651.5,170C 649.833,165.667 648.167,161.333 646.5,157C 639.167,156.333 631.833,156.333 624.5,157C 622.5,161.333 620.5,165.667 618.5,170C 612.167,170.667 605.833,170.667 599.5,170C 608.59,144.652 617.256,119.152 625.5,93.5 Z M 634.5,121.5 C 637.967,127.558 640.3,134.225 641.5,141.5C 636.821,141.666 632.155,141.499 627.5,141C 630.332,134.672 632.665,128.172 634.5,121.5 Z"/></g>
<g><path style="opacity:0.964" fill="#082212" d="M 688.5,93.5 C 694.868,93.1703 701.202,93.5037 707.5,94.5C 712.099,107.796 716.599,121.13 721,134.5C 725.932,121.205 730.765,107.872 735.5,94.5C 741.798,93.5037 748.132,93.1703 754.5,93.5C 757.751,119.179 761.085,144.845 764.5,170.5C 758.463,170.829 752.463,170.496 746.5,169.5C 744.705,156.179 742.871,142.845 741,129.5C 735.667,142.833 730.333,156.167 725,169.5C 722.281,170.444 719.448,170.777 716.5,170.5C 711.973,156.755 707.14,143.088 702,129.5C 698.648,142.94 696.148,156.606 694.5,170.5C 688.833,170.5 683.167,170.5 677.5,170.5C 681.073,144.819 684.74,119.153 688.5,93.5 Z"/></g>
<g><path style="opacity:0.996" fill="#082312" d="M 775.5,93.5 C 781.833,93.5 788.167,93.5 794.5,93.5C 794.5,119.167 794.5,144.833 794.5,170.5C 788.167,170.5 781.833,170.5 775.5,170.5C 775.5,144.833 775.5,119.167 775.5,93.5 Z"/></g>
<g><path style="opacity:0.972" fill="#082212" d="M 809.5,93.5 C 815.509,93.3338 821.509,93.5005 827.5,94C 839.033,108.9 850.2,124.067 861,139.5C 861.5,124.17 861.667,108.837 861.5,93.5C 867.167,93.5 872.833,93.5 878.5,93.5C 878.5,119.167 878.5,144.833 878.5,170.5C 872.158,170.666 865.825,170.5 859.5,170C 849.333,155.833 839.167,141.667 829,127.5C 828.5,141.829 828.333,156.163 828.5,170.5C 822.167,170.5 815.833,170.5 809.5,170.5C 809.5,144.833 809.5,119.167 809.5,93.5 Z"/></g>
<g><path style="opacity:0.964" fill="#082212" d="M 959.5,166.5 C 959.5,167.833 959.5,169.167 959.5,170.5C 953.158,170.666 946.825,170.5 940.5,170C 938.544,165.97 936.878,161.803 935.5,157.5C 927.833,156.167 920.167,156.167 912.5,157.5C 910.833,161.5 909.167,165.5 907.5,169.5C 901.167,170.833 894.833,170.833 888.5,169.5C 897.296,144.612 905.796,119.612 914,94.5C 917.416,93.8518 920.916,93.5184 924.5,93.5C 928.267,93.547 931.767,94.2136 935,95.5C 943.099,119.302 951.266,142.969 959.5,166.5 Z M 923.5,120.5 C 926.197,126.918 928.53,133.585 930.5,140.5C 925.869,141.662 921.202,141.828 916.5,141C 919.136,134.26 921.469,127.427 923.5,120.5 Z"/></g>
</svg>
