<?xml version="1.0" encoding="UTF-8" standalone="no"?>
<svg
   xmlns:dc="http://purl.org/dc/elements/1.1/"
   xmlns:cc="http://creativecommons.org/ns#"
   xmlns:rdf="http://www.w3.org/1999/02/22-rdf-syntax-ns#"
   xmlns:svg="http://www.w3.org/2000/svg"
   xmlns="http://www.w3.org/2000/svg"
   xmlns:sodipodi="http://sodipodi.sourceforge.net/DTD/sodipodi-0.dtd"
   xmlns:inkscape="http://www.inkscape.org/namespaces/inkscape"
   version="1.1"
   id="svg2"
   xml:space="preserve"
   width="139.972"
   height="91.222664"
   viewBox="0 0 139.972 91.222662"
   sodipodi:docname="20180404-ar-pp-2017-low-ojk.svg"
   inkscape:version="1.0.1 (3bc2e813f5, 2020-09-07)"><metadata
     id="metadata8"><rdf:RDF><cc:Work
         rdf:about=""><dc:format>image/svg+xml</dc:format><dc:type
           rdf:resource="http://purl.org/dc/dcmitype/StillImage" /><dc:title></dc:title></cc:Work></rdf:RDF></metadata><defs
     id="defs6"><clipPath
       clipPathUnits="userSpaceOnUse"
       id="clipPath18"><path
         d="m 0.038,0 h 595.2 V 841.89 H 0.038 Z"
         id="path16" /></clipPath><clipPath
       clipPathUnits="userSpaceOnUse"
       id="clipPath44"><path
         d="M 0,0 H 595.276 V 841.89 H 0 Z"
         id="path42" /></clipPath></defs><sodipodi:namedview
     pagecolor="#ffffff"
     bordercolor="#666666"
     borderopacity="1"
     objecttolerance="10"
     gridtolerance="10"
     guidetolerance="10"
     inkscape:pageopacity="0"
     inkscape:pageshadow="2"
     inkscape:window-width="1366"
     inkscape:window-height="705"
     id="namedview4"
     showgrid="false"
     fit-margin-top="0"
     fit-margin-left="0"
     fit-margin-right="0"
     fit-margin-bottom="0"
     inkscape:zoom="2.1768823"
     inkscape:cx="48.889987"
     inkscape:cy="68.06296"
     inkscape:window-x="-8"
     inkscape:window-y="-8"
     inkscape:window-maximized="1"
     inkscape:current-layer="g10" /><g
     id="g10"
     inkscape:groupmode="layer"
     inkscape:label="20180404-ar-pp-2017-low-ojk"
     transform="matrix(1.3333333,0,0,-1.3333333,-586.39065,1075.408)"><g
       id="g38"><g
         id="g40"
         clip-path="url(#clipPath44)"><g
           id="g46"
           transform="translate(508.269,784.325)"><path
             d="m 0,0 v -5.867 c 0,-2.292 -1.814,-3.519 -4.207,-3.519 -2.414,0 -4.25,1.89 -4.25,3.862 L -8.456,0 c 0,2.331 2.196,3.576 4.348,3.579 C -2.034,3.581 0,2.433 0,0 M 3.563,-2.361 C 3.351,2.046 0.324,5.589 -4.269,5.564 l -7.733,-0.043 -1.823,0.022 0.003,-0.705 c 1.305,0.044 1.82,-0.342 1.82,-1.048 v -22.875 c 0,-0.84 -0.68,-1.118 -1.834,-1.138 v -0.789 c 2.523,0.029 5.045,0.018 7.568,0.044 v 0.722 c -1.412,0.088 -2.114,0.414 -2.114,1.141 v 9.622 c 1.372,-1.406 3.343,-2.037 5.235,-1.833 3.572,0.383 6.937,4.177 6.71,8.955 m -18.898,21 c 6.128,-0.29 11.69,-2.755 15.941,-6.649 l 2.522,2.54 c -4.898,4.54 -11.35,7.406 -18.463,7.701 z M 2.319,10.267 C 6.185,5.986 8.634,0.385 8.921,-5.786 h 3.567 C 12.196,1.374 9.35,7.873 4.84,12.805 Z M 8.921,-8.224 C 8.634,-14.395 6.185,-19.998 2.319,-24.277 l 2.521,-2.54 c 4.51,4.934 7.356,11.431 7.648,18.593 z M 0.606,-26.001 c -4.25,-3.896 -9.813,-6.36 -15.941,-6.65 v -3.59 c 7.113,0.293 13.565,3.159 18.463,7.701 z m -18.361,-6.65 c -6.129,0.29 -11.693,2.757 -15.944,6.65 l -2.521,-2.539 c 4.899,-4.54 11.351,-7.408 18.465,-7.701 z m -17.655,8.374 c -3.867,4.279 -6.317,9.882 -6.602,16.053 h -3.567 c 0.291,-7.162 3.137,-13.66 7.647,-18.593 z m -6.602,18.491 c 0.285,6.171 2.736,11.772 6.602,16.053 l -2.522,2.538 C -42.44,7.873 -45.288,1.374 -45.579,-5.786 Z m 8.313,17.776 c 4.251,3.894 9.815,6.359 15.944,6.649 v 3.592 C -24.869,21.936 -31.321,19.07 -36.22,14.53 Z M -19.705,0 v -5.867 c 0,-2.292 -1.814,-3.519 -4.208,-3.519 -2.413,0 -4.25,1.89 -4.25,3.862 L -28.16,0 c 0,2.331 2.192,3.576 4.346,3.579 2.073,0.002 4.109,-1.146 4.109,-3.579 m 3.561,-2.361 c -0.211,4.407 -3.237,7.95 -7.832,7.925 l -7.731,-0.043 -1.825,0.022 0.003,-0.705 c 1.306,0.044 1.822,-0.342 1.822,-1.048 v -22.875 c 0,-0.84 -0.682,-1.118 -1.834,-1.138 v -0.789 c 2.523,0.029 5.043,0.018 7.567,0.044 v 0.722 c -1.414,0.088 -2.114,0.414 -2.114,1.141 v 9.622 c 1.371,-1.406 3.342,-2.037 5.236,-1.833 3.57,0.383 6.937,4.177 6.708,8.955"
             style="fill:#1960aa;fill-opacity:1;fill-rule:nonzero;stroke:none"
             id="path48" /></g><g
           id="g50"
           transform="translate(443.497,738.987)"><path
             d="m 0,0 c 0,-0.064 -0.002,-0.12 -0.006,-0.164 -0.004,-0.046 -0.01,-0.084 -0.017,-0.117 -0.007,-0.032 -0.018,-0.06 -0.031,-0.083 -0.012,-0.023 -0.034,-0.049 -0.062,-0.079 -0.029,-0.03 -0.083,-0.068 -0.164,-0.115 -0.081,-0.046 -0.181,-0.09 -0.298,-0.133 -0.118,-0.042 -0.252,-0.078 -0.403,-0.106 -0.151,-0.029 -0.314,-0.043 -0.49,-0.043 -0.342,0 -0.653,0.053 -0.928,0.159 -0.277,0.105 -0.512,0.264 -0.705,0.474 -0.194,0.21 -0.342,0.473 -0.446,0.788 -0.102,0.315 -0.154,0.681 -0.154,1.099 0,0.426 0.057,0.804 0.17,1.134 0.114,0.331 0.272,0.608 0.476,0.833 0.204,0.224 0.449,0.394 0.734,0.51 0.285,0.116 0.599,0.175 0.942,0.175 0.14,0 0.274,-0.012 0.403,-0.035 C -0.85,4.273 -0.73,4.243 -0.621,4.206 -0.512,4.169 -0.413,4.125 -0.325,4.076 -0.237,4.027 -0.176,3.985 -0.141,3.95 -0.106,3.916 -0.082,3.886 -0.069,3.863 -0.057,3.84 -0.046,3.81 -0.038,3.774 -0.03,3.738 -0.024,3.695 -0.021,3.647 -0.018,3.597 -0.016,3.537 -0.016,3.464 -0.016,3.387 -0.018,3.321 -0.023,3.267 -0.028,3.213 -0.037,3.169 -0.05,3.135 -0.063,3.102 -0.078,3.077 -0.097,3.062 -0.114,3.046 -0.135,3.039 -0.158,3.039 c -0.039,0 -0.088,0.022 -0.148,0.068 -0.059,0.044 -0.135,0.095 -0.23,0.15 -0.094,0.056 -0.206,0.106 -0.337,0.151 -0.13,0.046 -0.285,0.068 -0.466,0.068 -0.199,0 -0.376,-0.04 -0.532,-0.122 C -2.027,3.273 -2.16,3.157 -2.271,3.006 -2.38,2.855 -2.463,2.672 -2.52,2.458 -2.576,2.244 -2.604,2.003 -2.604,1.734 c 0,-0.294 0.03,-0.549 0.09,-0.764 0.061,-0.216 0.147,-0.393 0.259,-0.533 0.112,-0.139 0.248,-0.243 0.407,-0.311 0.159,-0.069 0.337,-0.103 0.536,-0.103 0.18,0 0.336,0.022 0.468,0.064 0.132,0.042 0.245,0.09 0.339,0.142 0.094,0.051 0.172,0.097 0.233,0.139 0.06,0.041 0.107,0.062 0.141,0.062 0.026,0 0.046,-0.006 0.062,-0.016 C -0.054,0.404 -0.041,0.383 -0.03,0.352 -0.021,0.321 -0.013,0.278 -0.008,0.223 -0.002,0.167 0,0.093 0,0"
             style="fill:#1960aa;fill-opacity:1;fill-rule:nonzero;stroke:none"
             id="path52" /></g><g
           id="g54"
           transform="translate(447.609,740.736)"><path
             d="m 0,0 c 0,0.263 -0.021,0.502 -0.062,0.718 -0.042,0.215 -0.112,0.4 -0.211,0.553 -0.099,0.154 -0.232,0.273 -0.397,0.357 -0.165,0.083 -0.371,0.125 -0.619,0.125 -0.25,0 -0.459,-0.047 -0.627,-0.141 C -2.084,1.518 -2.22,1.392 -2.323,1.235 -2.426,1.077 -2.499,0.893 -2.541,0.683 -2.584,0.473 -2.606,0.25 -2.606,0.015 c 0,-0.273 0.021,-0.519 0.063,-0.737 0.041,-0.218 0.11,-0.405 0.209,-0.559 0.097,-0.155 0.229,-0.273 0.394,-0.354 0.165,-0.082 0.373,-0.122 0.623,-0.122 0.251,0 0.46,0.046 0.627,0.139 0.168,0.093 0.304,0.219 0.407,0.379 0.103,0.16 0.176,0.347 0.219,0.56 C -0.022,-0.467 0,-0.24 0,0 m 1.068,0.054 c 0,-0.415 -0.052,-0.787 -0.155,-1.115 -0.103,-0.327 -0.256,-0.606 -0.46,-0.834 -0.204,-0.228 -0.456,-0.403 -0.757,-0.523 -0.301,-0.119 -0.649,-0.179 -1.043,-0.179 -0.39,0 -0.731,0.051 -1.021,0.153 -0.29,0.102 -0.532,0.257 -0.725,0.466 -0.193,0.209 -0.339,0.474 -0.436,0.797 -0.096,0.323 -0.145,0.705 -0.145,1.146 0,0.405 0.052,0.77 0.155,1.093 0.104,0.325 0.257,0.6 0.461,0.827 0.203,0.227 0.456,0.402 0.757,0.523 0.3,0.121 0.649,0.182 1.047,0.182 0.379,0 0.714,-0.051 1.004,-0.151 C 0.041,2.338 0.283,2.183 0.478,1.974 0.672,1.765 0.82,1.501 0.919,1.183 1.018,0.864 1.068,0.488 1.068,0.054"
             style="fill:#1960aa;fill-opacity:1;fill-rule:nonzero;stroke:none"
             id="path56" /></g><g
           id="g58"
           transform="translate(453.662,738.584)"><path
             d="M 0,0 C 0,-0.059 -0.011,-0.112 -0.031,-0.159 -0.052,-0.205 -0.079,-0.244 -0.114,-0.275 -0.149,-0.306 -0.19,-0.328 -0.238,-0.342 -0.286,-0.356 -0.334,-0.364 -0.383,-0.364 h -0.433 c -0.091,0 -0.169,0.01 -0.235,0.028 -0.066,0.018 -0.127,0.05 -0.181,0.098 -0.056,0.048 -0.11,0.113 -0.162,0.194 -0.051,0.081 -0.109,0.186 -0.173,0.315 l -1.247,2.342 c -0.073,0.139 -0.146,0.29 -0.221,0.451 -0.074,0.161 -0.142,0.318 -0.201,0.47 h -0.008 c 0.011,-0.185 0.018,-0.371 0.023,-0.555 0.005,-0.185 0.008,-0.375 0.008,-0.571 v -2.621 c 0,-0.026 -0.007,-0.049 -0.021,-0.069 -0.014,-0.021 -0.038,-0.038 -0.074,-0.052 -0.035,-0.015 -0.082,-0.026 -0.141,-0.034 -0.06,-0.007 -0.135,-0.011 -0.229,-0.011 -0.09,0 -0.165,0.004 -0.223,0.011 -0.06,0.008 -0.107,0.019 -0.14,0.034 -0.034,0.014 -0.057,0.031 -0.07,0.052 -0.013,0.02 -0.019,0.043 -0.019,0.069 v 4.502 c 0,0.122 0.035,0.213 0.107,0.273 0.07,0.061 0.157,0.091 0.26,0.091 h 0.546 c 0.099,0 0.181,-0.009 0.248,-0.025 0.067,-0.017 0.127,-0.045 0.18,-0.084 0.053,-0.038 0.102,-0.092 0.149,-0.16 0.046,-0.069 0.094,-0.153 0.143,-0.254 L -1.521,2.299 C -1.465,2.188 -1.408,2.08 -1.353,1.972 -1.298,1.865 -1.244,1.758 -1.192,1.651 -1.141,1.544 -1.09,1.439 -1.041,1.336 -0.992,1.232 -0.944,1.129 -0.898,1.026 h 0.003 c -0.007,0.18 -0.012,0.369 -0.016,0.565 -0.004,0.196 -0.006,0.383 -0.006,0.561 v 2.35 c 0,0.026 0.008,0.049 0.022,0.07 0.016,0.02 0.042,0.038 0.079,0.054 0.036,0.016 0.084,0.026 0.142,0.033 0.06,0.006 0.136,0.01 0.229,0.01 0.088,0 0.161,-0.004 0.22,-0.01 0.06,-0.007 0.106,-0.017 0.138,-0.033 C -0.055,4.61 -0.032,4.592 -0.02,4.572 -0.007,4.551 0,4.528 0,4.502 Z"
             style="fill:#1960aa;fill-opacity:1;fill-rule:nonzero;stroke:none"
             id="path60" /></g><g
           id="g62"
           transform="translate(457.722,739.73)"><path
             d="m 0,0 c 0,-0.263 -0.049,-0.494 -0.146,-0.693 -0.099,-0.199 -0.232,-0.365 -0.399,-0.497 -0.168,-0.133 -0.364,-0.233 -0.589,-0.3 -0.224,-0.068 -0.465,-0.101 -0.72,-0.101 -0.172,0 -0.334,0.014 -0.482,0.043 -0.148,0.028 -0.279,0.062 -0.393,0.102 -0.113,0.04 -0.209,0.082 -0.284,0.126 -0.076,0.044 -0.132,0.083 -0.165,0.116 -0.033,0.034 -0.057,0.082 -0.071,0.145 -0.015,0.063 -0.022,0.154 -0.022,0.273 0,0.08 0.003,0.147 0.008,0.202 0.005,0.054 0.014,0.098 0.026,0.131 0.011,0.034 0.026,0.057 0.046,0.072 0.019,0.014 0.042,0.021 0.068,0.021 0.036,0 0.087,-0.021 0.152,-0.064 0.067,-0.042 0.151,-0.09 0.254,-0.141 0.103,-0.052 0.227,-0.099 0.369,-0.141 0.144,-0.043 0.31,-0.065 0.498,-0.065 0.124,0 0.235,0.016 0.333,0.045 0.098,0.03 0.181,0.072 0.249,0.126 0.069,0.054 0.122,0.121 0.158,0.201 0.036,0.08 0.053,0.169 0.053,0.267 0,0.114 -0.03,0.211 -0.092,0.293 C -1.211,0.242 -1.292,0.314 -1.392,0.377 -1.49,0.44 -1.604,0.5 -1.729,0.556 -1.856,0.611 -1.986,0.669 -2.121,0.731 -2.255,0.794 -2.386,0.864 -2.512,0.942 -2.639,1.021 -2.751,1.115 -2.851,1.225 -2.95,1.335 -3.03,1.464 -3.093,1.614 c -0.061,0.15 -0.093,0.329 -0.093,0.538 0,0.24 0.045,0.451 0.134,0.633 0.089,0.182 0.209,0.333 0.361,0.453 0.15,0.12 0.328,0.21 0.534,0.269 0.205,0.059 0.422,0.089 0.651,0.089 0.119,0 0.238,-0.009 0.357,-0.027 C -1.03,3.551 -0.92,3.526 -0.816,3.496 -0.713,3.464 -0.621,3.43 -0.542,3.391 -0.462,3.352 -0.408,3.32 -0.383,3.294 -0.357,3.268 -0.34,3.247 -0.331,3.229 -0.321,3.21 -0.313,3.187 -0.308,3.157 -0.301,3.127 -0.297,3.089 -0.294,3.044 -0.291,3 -0.29,2.943 -0.29,2.876 -0.29,2.801 -0.292,2.738 -0.296,2.687 -0.3,2.635 -0.306,2.592 -0.315,2.559 -0.324,2.525 -0.337,2.5 -0.354,2.485 -0.371,2.47 -0.394,2.462 -0.422,2.462 -0.45,2.462 -0.495,2.48 -0.557,2.516 -0.619,2.552 -0.695,2.591 -0.785,2.634 -0.876,2.677 -0.98,2.715 -1.099,2.75 -1.218,2.785 -1.348,2.803 -1.49,2.803 -1.601,2.803 -1.697,2.789 -1.78,2.762 -1.863,2.735 -1.932,2.697 -1.987,2.649 -2.043,2.602 -2.084,2.544 -2.111,2.477 -2.139,2.41 -2.151,2.339 -2.151,2.265 c 0,-0.112 0.03,-0.208 0.09,-0.289 C -2,1.895 -1.919,1.822 -1.817,1.759 -1.715,1.696 -1.6,1.637 -1.471,1.581 -1.342,1.526 -1.21,1.467 -1.076,1.405 -0.941,1.343 -0.81,1.273 -0.681,1.194 -0.552,1.115 -0.437,1.021 -0.336,0.912 -0.235,0.802 -0.154,0.673 -0.093,0.524 -0.03,0.376 0,0.201 0,0"
             style="fill:#1960aa;fill-opacity:1;fill-rule:nonzero;stroke:none"
             id="path64" /></g><g
           id="g66"
           transform="translate(461.757,742.819)"><path
             d="m 0,0 c 0,-0.075 -0.004,-0.139 -0.01,-0.191 -0.007,-0.054 -0.016,-0.096 -0.029,-0.128 -0.013,-0.033 -0.029,-0.057 -0.049,-0.072 -0.018,-0.015 -0.04,-0.023 -0.063,-0.023 h -1.254 v -4.038 c 0,-0.025 -0.009,-0.049 -0.026,-0.069 -0.016,-0.021 -0.045,-0.038 -0.083,-0.05 -0.039,-0.014 -0.091,-0.024 -0.157,-0.032 -0.065,-0.007 -0.147,-0.011 -0.246,-0.011 -0.098,0 -0.18,0.004 -0.245,0.011 -0.067,0.008 -0.118,0.018 -0.157,0.032 -0.038,0.012 -0.067,0.029 -0.083,0.05 -0.017,0.02 -0.026,0.044 -0.026,0.069 v 4.038 h -1.254 c -0.026,0 -0.047,0.008 -0.065,0.023 -0.019,0.015 -0.034,0.039 -0.047,0.072 -0.013,0.032 -0.022,0.074 -0.029,0.128 -0.006,0.052 -0.01,0.116 -0.01,0.191 0,0.078 0.004,0.143 0.01,0.198 0.007,0.053 0.016,0.097 0.029,0.129 0.013,0.032 0.028,0.056 0.047,0.07 0.018,0.014 0.039,0.021 0.065,0.021 h 3.531 c 0.023,0 0.045,-0.007 0.063,-0.021 0.02,-0.014 0.036,-0.038 0.049,-0.07 C -0.026,0.295 -0.017,0.251 -0.01,0.198 -0.004,0.143 0,0.078 0,0"
             style="fill:#1960aa;fill-opacity:1;fill-rule:nonzero;stroke:none"
             id="path68" /></g><g
           id="g70"
           transform="translate(464.752,741.758)"><path
             d="M 0,0 C 0,0.166 -0.038,0.305 -0.112,0.418 -0.187,0.532 -0.309,0.612 -0.48,0.659 -0.532,0.671 -0.59,0.682 -0.656,0.689 -0.722,0.697 -0.813,0.701 -0.929,0.701 H -1.385 V -0.72 h 0.518 c 0.145,0 0.271,0.018 0.379,0.053 0.109,0.035 0.199,0.083 0.272,0.147 0.072,0.063 0.126,0.139 0.162,0.226 C -0.018,-0.206 0,-0.108 0,0 M 1.312,-3.398 C 1.312,-3.427 1.307,-3.45 1.297,-3.47 1.287,-3.489 1.262,-3.505 1.223,-3.518 1.185,-3.531 1.127,-3.54 1.053,-3.545 0.978,-3.55 0.876,-3.553 0.748,-3.553 0.639,-3.553 0.552,-3.55 0.488,-3.545 0.423,-3.54 0.373,-3.53 0.335,-3.516 0.297,-3.502 0.271,-3.484 0.255,-3.462 0.24,-3.44 0.227,-3.414 0.217,-3.383 l -0.449,1.119 c -0.055,0.126 -0.107,0.238 -0.159,0.337 -0.052,0.098 -0.109,0.18 -0.172,0.245 -0.063,0.066 -0.136,0.116 -0.219,0.15 -0.083,0.033 -0.177,0.05 -0.286,0.05 h -0.317 v -1.909 c 0,-0.025 -0.009,-0.049 -0.026,-0.069 -0.016,-0.021 -0.045,-0.038 -0.083,-0.05 -0.039,-0.013 -0.09,-0.024 -0.155,-0.032 -0.064,-0.007 -0.147,-0.011 -0.248,-0.011 -0.098,0 -0.18,0.004 -0.245,0.011 -0.067,0.008 -0.118,0.019 -0.157,0.032 -0.038,0.012 -0.066,0.029 -0.081,0.05 -0.016,0.02 -0.024,0.044 -0.024,0.069 v 4.549 c 0,0.113 0.029,0.195 0.087,0.246 0.059,0.05 0.13,0.075 0.215,0.075 h 1.297 c 0.132,0 0.24,-0.002 0.325,-0.007 C -0.395,1.466 -0.317,1.46 -0.248,1.452 -0.046,1.424 0.135,1.374 0.296,1.305 0.458,1.235 0.594,1.145 0.707,1.032 0.819,0.92 0.905,0.787 0.964,0.633 1.023,0.48 1.053,0.304 1.053,0.105 1.053,-0.063 1.032,-0.216 0.989,-0.354 0.947,-0.492 0.884,-0.615 0.801,-0.723 0.719,-0.832 0.617,-0.926 0.496,-1.006 0.375,-1.086 0.236,-1.151 0.082,-1.2 c 0.075,-0.036 0.145,-0.079 0.21,-0.131 0.066,-0.052 0.128,-0.114 0.186,-0.188 0.059,-0.073 0.113,-0.157 0.165,-0.252 0.052,-0.094 0.102,-0.2 0.15,-0.319 l 0.422,-0.987 c 0.039,-0.098 0.065,-0.17 0.078,-0.215 0.013,-0.045 0.019,-0.081 0.019,-0.106"
             style="fill:#1960aa;fill-opacity:1;fill-rule:nonzero;stroke:none"
             id="path72" /></g><g
           id="g74"
           transform="translate(470.899,740.094)"><path
             d="m 0,0 c 0,-0.307 -0.045,-0.582 -0.136,-0.824 -0.09,-0.243 -0.222,-0.448 -0.398,-0.616 -0.176,-0.168 -0.393,-0.295 -0.651,-0.383 -0.257,-0.088 -0.554,-0.132 -0.89,-0.132 -0.315,0 -0.597,0.039 -0.848,0.118 -0.25,0.079 -0.462,0.198 -0.635,0.358 -0.172,0.16 -0.304,0.36 -0.396,0.599 -0.092,0.238 -0.138,0.518 -0.138,0.837 v 3.047 c 0,0.026 0.008,0.049 0.024,0.07 0.015,0.02 0.043,0.037 0.083,0.05 0.04,0.013 0.092,0.023 0.157,0.031 0.064,0.008 0.146,0.011 0.247,0.011 0.099,0 0.18,-0.003 0.244,-0.011 0.065,-0.008 0.116,-0.018 0.155,-0.031 0.038,-0.013 0.067,-0.03 0.083,-0.05 0.017,-0.021 0.026,-0.044 0.026,-0.07 V 0.046 c 0,-0.198 0.024,-0.371 0.073,-0.516 0.049,-0.146 0.119,-0.267 0.211,-0.362 0.092,-0.096 0.201,-0.168 0.329,-0.215 0.128,-0.048 0.271,-0.072 0.428,-0.072 0.16,0 0.303,0.025 0.429,0.074 0.126,0.049 0.234,0.121 0.322,0.215 0.088,0.094 0.155,0.21 0.203,0.348 0.048,0.138 0.071,0.295 0.071,0.47 v 3.016 c 0,0.026 0.008,0.049 0.024,0.07 0.015,0.02 0.043,0.037 0.081,0.05 0.039,0.013 0.091,0.023 0.157,0.031 0.065,0.008 0.147,0.011 0.246,0.011 0.098,0 0.179,-0.003 0.241,-0.011 0.064,-0.008 0.114,-0.018 0.154,-0.031 0.039,-0.013 0.065,-0.03 0.081,-0.05 C -0.008,3.053 0,3.03 0,3.004 Z"
             style="fill:#1960aa;fill-opacity:1;fill-rule:nonzero;stroke:none"
             id="path76" /></g><g
           id="g78"
           transform="translate(475.452,738.987)"><path
             d="m 0,0 c 0,-0.064 -0.002,-0.12 -0.006,-0.164 -0.004,-0.046 -0.01,-0.084 -0.017,-0.117 -0.008,-0.032 -0.019,-0.06 -0.032,-0.083 -0.012,-0.023 -0.033,-0.049 -0.061,-0.079 -0.029,-0.03 -0.083,-0.068 -0.165,-0.115 -0.081,-0.046 -0.181,-0.09 -0.298,-0.133 -0.117,-0.042 -0.251,-0.078 -0.402,-0.106 -0.152,-0.029 -0.315,-0.043 -0.49,-0.043 -0.343,0 -0.653,0.053 -0.929,0.159 -0.277,0.105 -0.511,0.264 -0.704,0.474 -0.194,0.21 -0.342,0.473 -0.446,0.788 -0.103,0.315 -0.155,0.681 -0.155,1.099 0,0.426 0.057,0.804 0.171,1.134 0.113,0.331 0.272,0.608 0.475,0.833 0.205,0.224 0.449,0.394 0.734,0.51 0.285,0.116 0.599,0.175 0.943,0.175 0.139,0 0.274,-0.012 0.403,-0.035 0.128,-0.024 0.248,-0.054 0.358,-0.091 0.109,-0.037 0.208,-0.081 0.296,-0.13 C -0.237,4.027 -0.177,3.985 -0.142,3.95 -0.106,3.916 -0.083,3.886 -0.07,3.863 -0.057,3.84 -0.047,3.81 -0.039,3.774 -0.031,3.738 -0.025,3.695 -0.021,3.647 -0.018,3.597 -0.016,3.537 -0.016,3.464 -0.016,3.387 -0.019,3.321 -0.023,3.267 -0.028,3.213 -0.038,3.169 -0.051,3.135 -0.063,3.102 -0.079,3.077 -0.097,3.062 -0.115,3.046 -0.136,3.039 -0.159,3.039 c -0.038,0 -0.088,0.022 -0.147,0.068 -0.059,0.044 -0.136,0.095 -0.23,0.15 -0.095,0.056 -0.207,0.106 -0.337,0.151 -0.131,0.046 -0.286,0.068 -0.467,0.068 -0.198,0 -0.376,-0.04 -0.532,-0.122 C -2.028,3.273 -2.161,3.157 -2.271,3.006 -2.38,2.855 -2.464,2.672 -2.521,2.458 -2.577,2.244 -2.605,2.003 -2.605,1.734 c 0,-0.294 0.03,-0.549 0.09,-0.764 0.061,-0.216 0.148,-0.393 0.26,-0.533 0.112,-0.139 0.248,-0.243 0.406,-0.311 0.16,-0.069 0.338,-0.103 0.537,-0.103 0.18,0 0.336,0.022 0.468,0.064 0.131,0.042 0.244,0.09 0.338,0.142 0.095,0.051 0.172,0.097 0.233,0.139 0.06,0.041 0.108,0.062 0.141,0.062 0.026,0 0.047,-0.006 0.062,-0.016 0.015,-0.01 0.028,-0.031 0.039,-0.062 0.01,-0.031 0.018,-0.074 0.023,-0.129 C -0.003,0.167 0,0.093 0,0"
             style="fill:#1960aa;fill-opacity:1;fill-rule:nonzero;stroke:none"
             id="path80" /></g><g
           id="g82"
           transform="translate(479.556,742.819)"><path
             d="m 0,0 c 0,-0.075 -0.004,-0.139 -0.01,-0.191 -0.007,-0.054 -0.016,-0.096 -0.029,-0.128 -0.013,-0.033 -0.029,-0.057 -0.049,-0.072 -0.018,-0.015 -0.04,-0.023 -0.063,-0.023 h -1.254 v -4.038 c 0,-0.025 -0.009,-0.049 -0.026,-0.069 -0.016,-0.021 -0.045,-0.038 -0.083,-0.05 -0.039,-0.014 -0.091,-0.024 -0.157,-0.032 -0.065,-0.007 -0.147,-0.011 -0.246,-0.011 -0.098,0 -0.18,0.004 -0.245,0.011 -0.067,0.008 -0.118,0.018 -0.157,0.032 -0.038,0.012 -0.067,0.029 -0.083,0.05 -0.017,0.02 -0.026,0.044 -0.026,0.069 v 4.038 h -1.254 c -0.026,0 -0.047,0.008 -0.065,0.023 -0.019,0.015 -0.034,0.039 -0.047,0.072 -0.013,0.032 -0.022,0.074 -0.029,0.128 -0.006,0.052 -0.01,0.116 -0.01,0.191 0,0.078 0.004,0.143 0.01,0.198 0.007,0.053 0.016,0.097 0.029,0.129 0.013,0.032 0.028,0.056 0.047,0.07 0.018,0.014 0.039,0.021 0.065,0.021 h 3.531 c 0.023,0 0.045,-0.007 0.063,-0.021 0.02,-0.014 0.036,-0.038 0.049,-0.07 C -0.026,0.295 -0.017,0.251 -0.01,0.198 -0.004,0.143 0,0.078 0,0"
             style="fill:#1960aa;fill-opacity:1;fill-rule:nonzero;stroke:none"
             id="path84" /></g><g
           id="g86"
           transform="translate(481.169,738.367)"><path
             d="m 0,0 c 0,-0.025 -0.009,-0.049 -0.025,-0.069 -0.017,-0.021 -0.044,-0.038 -0.083,-0.051 -0.039,-0.013 -0.09,-0.023 -0.155,-0.031 -0.065,-0.008 -0.147,-0.012 -0.248,-0.012 -0.098,0 -0.179,0.004 -0.246,0.012 -0.065,0.008 -0.118,0.018 -0.156,0.031 -0.039,0.013 -0.066,0.03 -0.084,0.051 -0.017,0.02 -0.024,0.044 -0.024,0.069 v 4.73 c 0,0.026 0.007,0.049 0.024,0.07 0.018,0.021 0.046,0.037 0.086,0.051 0.04,0.012 0.092,0.022 0.156,0.03 0.065,0.008 0.146,0.012 0.244,0.012 0.101,0 0.183,-0.004 0.248,-0.012 0.065,-0.008 0.116,-0.018 0.155,-0.03 C -0.069,4.837 -0.042,4.821 -0.025,4.8 -0.009,4.779 0,4.756 0,4.73 Z"
             style="fill:#1960aa;fill-opacity:1;fill-rule:nonzero;stroke:none"
             id="path88" /></g><g
           id="g90"
           transform="translate(485.698,740.736)"><path
             d="m 0,0 c 0,0.263 -0.021,0.502 -0.062,0.718 -0.042,0.215 -0.112,0.4 -0.211,0.553 -0.099,0.154 -0.232,0.273 -0.397,0.357 -0.165,0.083 -0.371,0.125 -0.619,0.125 -0.25,0 -0.459,-0.047 -0.627,-0.141 C -2.084,1.518 -2.22,1.392 -2.323,1.235 -2.426,1.077 -2.499,0.893 -2.541,0.683 -2.584,0.473 -2.606,0.25 -2.606,0.015 c 0,-0.273 0.021,-0.519 0.063,-0.737 0.041,-0.218 0.11,-0.405 0.209,-0.559 0.097,-0.155 0.229,-0.273 0.394,-0.354 0.165,-0.082 0.373,-0.122 0.623,-0.122 0.251,0 0.46,0.046 0.627,0.139 0.168,0.093 0.304,0.219 0.407,0.379 0.103,0.16 0.176,0.347 0.219,0.56 C -0.022,-0.467 0,-0.24 0,0 m 1.068,0.054 c 0,-0.415 -0.052,-0.787 -0.155,-1.115 -0.103,-0.327 -0.256,-0.606 -0.46,-0.834 -0.204,-0.228 -0.456,-0.403 -0.757,-0.523 -0.301,-0.119 -0.649,-0.179 -1.043,-0.179 -0.39,0 -0.731,0.051 -1.021,0.153 -0.29,0.102 -0.532,0.257 -0.725,0.466 -0.193,0.209 -0.339,0.474 -0.436,0.797 -0.096,0.323 -0.145,0.705 -0.145,1.146 0,0.405 0.052,0.77 0.155,1.093 0.104,0.325 0.257,0.6 0.461,0.827 0.203,0.227 0.456,0.402 0.757,0.523 0.3,0.121 0.649,0.182 1.047,0.182 0.379,0 0.714,-0.051 1.004,-0.151 C 0.041,2.338 0.283,2.183 0.478,1.974 0.672,1.765 0.82,1.501 0.919,1.183 1.018,0.864 1.068,0.488 1.068,0.054"
             style="fill:#1960aa;fill-opacity:1;fill-rule:nonzero;stroke:none"
             id="path92" /></g><g
           id="g94"
           transform="translate(491.752,738.584)"><path
             d="M 0,0 C 0,-0.059 -0.011,-0.112 -0.031,-0.159 -0.052,-0.205 -0.079,-0.244 -0.114,-0.275 -0.149,-0.306 -0.19,-0.328 -0.238,-0.342 -0.286,-0.356 -0.334,-0.364 -0.383,-0.364 h -0.433 c -0.091,0 -0.169,0.01 -0.235,0.028 -0.066,0.018 -0.127,0.05 -0.181,0.098 -0.056,0.048 -0.11,0.113 -0.162,0.194 -0.051,0.081 -0.109,0.186 -0.173,0.315 l -1.247,2.342 c -0.073,0.139 -0.146,0.29 -0.221,0.451 -0.074,0.161 -0.142,0.318 -0.201,0.47 h -0.008 c 0.011,-0.185 0.018,-0.371 0.023,-0.555 0.005,-0.185 0.008,-0.375 0.008,-0.571 v -2.621 c 0,-0.026 -0.007,-0.049 -0.021,-0.069 -0.014,-0.021 -0.038,-0.038 -0.074,-0.052 -0.035,-0.015 -0.082,-0.026 -0.141,-0.034 -0.06,-0.007 -0.135,-0.011 -0.229,-0.011 -0.09,0 -0.165,0.004 -0.223,0.011 -0.06,0.008 -0.107,0.019 -0.14,0.034 -0.034,0.014 -0.057,0.031 -0.07,0.052 -0.013,0.02 -0.019,0.043 -0.019,0.069 v 4.502 c 0,0.122 0.035,0.213 0.107,0.273 0.07,0.061 0.157,0.091 0.26,0.091 h 0.546 c 0.099,0 0.181,-0.009 0.248,-0.025 0.067,-0.017 0.127,-0.045 0.18,-0.084 0.053,-0.038 0.102,-0.092 0.149,-0.16 0.046,-0.069 0.094,-0.153 0.143,-0.254 L -1.521,2.299 C -1.465,2.188 -1.408,2.08 -1.353,1.972 -1.298,1.865 -1.244,1.758 -1.192,1.651 -1.141,1.544 -1.09,1.439 -1.041,1.336 -0.992,1.232 -0.944,1.129 -0.898,1.026 h 0.003 c -0.007,0.18 -0.012,0.369 -0.016,0.565 -0.004,0.196 -0.006,0.383 -0.006,0.561 v 2.35 c 0,0.026 0.008,0.049 0.022,0.07 0.016,0.02 0.042,0.038 0.079,0.054 0.036,0.016 0.084,0.026 0.142,0.033 0.06,0.006 0.136,0.01 0.229,0.01 0.088,0 0.161,-0.004 0.22,-0.01 0.06,-0.007 0.106,-0.017 0.138,-0.033 C -0.055,4.61 -0.032,4.592 -0.02,4.572 -0.007,4.551 0,4.528 0,4.502 Z"
             style="fill:#1960aa;fill-opacity:1;fill-rule:nonzero;stroke:none"
             id="path96" /></g><g
           id="g98"
           transform="translate(495.893,742.238)"><path
             d="m 0,0 c 0,-0.054 0.01,-0.111 0.028,-0.169 0.018,-0.058 0.043,-0.118 0.075,-0.181 0.032,-0.064 0.073,-0.131 0.122,-0.202 0.049,-0.071 0.104,-0.147 0.167,-0.23 0.152,0.083 0.279,0.159 0.381,0.228 0.102,0.07 0.183,0.138 0.246,0.204 0.061,0.065 0.105,0.131 0.132,0.197 0.025,0.066 0.038,0.133 0.038,0.203 0,0.062 -0.012,0.12 -0.034,0.174 C 1.131,0.279 1.095,0.325 1.046,0.366 0.996,0.406 0.936,0.437 0.864,0.46 0.791,0.484 0.706,0.495 0.609,0.495 0.5,0.495 0.408,0.483 0.331,0.458 0.255,0.434 0.193,0.399 0.144,0.354 0.095,0.309 0.059,0.256 0.035,0.195 0.012,0.135 0,0.07 0,0 m -0.433,-2.559 c 0,-0.111 0.021,-0.213 0.062,-0.306 0.041,-0.093 0.101,-0.173 0.178,-0.24 0.077,-0.067 0.174,-0.119 0.289,-0.156 0.114,-0.038 0.247,-0.057 0.397,-0.057 0.077,0 0.154,0.008 0.23,0.022 0.076,0.014 0.15,0.033 0.225,0.058 0.073,0.024 0.142,0.054 0.209,0.089 0.065,0.034 0.127,0.073 0.183,0.114 -0.116,0.093 -0.233,0.191 -0.35,0.296 -0.118,0.105 -0.232,0.21 -0.343,0.316 -0.111,0.105 -0.217,0.21 -0.32,0.315 -0.101,0.104 -0.192,0.203 -0.272,0.296 -0.091,-0.056 -0.166,-0.115 -0.227,-0.176 -0.06,-0.06 -0.11,-0.122 -0.149,-0.184 -0.038,-0.062 -0.066,-0.125 -0.085,-0.19 -0.018,-0.064 -0.027,-0.13 -0.027,-0.197 m -1.053,-0.054 c 0,0.144 0.021,0.281 0.064,0.408 0.042,0.128 0.107,0.249 0.192,0.362 0.085,0.114 0.19,0.222 0.315,0.325 0.125,0.104 0.271,0.204 0.436,0.303 -0.093,0.118 -0.174,0.229 -0.242,0.334 -0.069,0.105 -0.125,0.205 -0.17,0.3 -0.046,0.095 -0.079,0.187 -0.101,0.273 -0.022,0.087 -0.033,0.172 -0.033,0.258 0,0.18 0.032,0.35 0.097,0.508 0.064,0.159 0.165,0.297 0.301,0.413 0.137,0.116 0.312,0.208 0.523,0.277 C 0.108,1.216 0.362,1.25 0.659,1.25 0.93,1.25 1.163,1.224 1.36,1.173 1.555,1.121 1.717,1.048 1.843,0.954 1.97,0.86 2.064,0.744 2.126,0.606 2.188,0.468 2.219,0.312 2.219,0.139 2.219,-0.016 2.193,-0.159 2.139,-0.291 2.086,-0.422 2.006,-0.547 1.9,-0.666 1.792,-0.785 1.659,-0.899 1.498,-1.009 1.339,-1.118 1.152,-1.229 0.938,-1.34 1.007,-1.42 1.085,-1.504 1.171,-1.593 1.258,-1.682 1.347,-1.771 1.439,-1.86 c 0.092,-0.089 0.183,-0.178 0.276,-0.265 0.094,-0.088 0.184,-0.169 0.272,-0.244 0.033,0.051 0.063,0.111 0.09,0.178 0.028,0.067 0.051,0.138 0.07,0.213 0.019,0.074 0.035,0.151 0.047,0.228 0.011,0.077 0.017,0.154 0.017,0.228 v 0.12 c 0,0.029 0.005,0.054 0.016,0.074 0.01,0.021 0.031,0.037 0.063,0.051 0.033,0.012 0.079,0.022 0.14,0.028 0.061,0.007 0.139,0.01 0.234,0.01 0.09,0 0.165,-0.002 0.224,-0.006 0.06,-0.004 0.106,-0.012 0.142,-0.025 0.035,-0.013 0.059,-0.03 0.073,-0.052 0.015,-0.022 0.021,-0.05 0.021,-0.083 V -1.529 C 3.124,-1.653 3.116,-1.778 3.097,-1.905 3.079,-2.031 3.053,-2.155 3.018,-2.274 2.984,-2.394 2.94,-2.509 2.888,-2.619 2.837,-2.729 2.78,-2.831 2.718,-2.926 c 0.09,-0.07 0.168,-0.128 0.234,-0.175 0.066,-0.046 0.123,-0.083 0.168,-0.11 0.047,-0.027 0.085,-0.046 0.117,-0.056 0.031,-0.01 0.056,-0.016 0.077,-0.016 h 0.08 c 0.024,0 0.044,-0.009 0.059,-0.027 C 3.469,-3.328 3.481,-3.36 3.489,-3.406 3.496,-3.453 3.5,-3.522 3.5,-3.612 3.5,-3.707 3.498,-3.782 3.494,-3.836 3.491,-3.89 3.484,-3.93 3.475,-3.956 3.466,-3.982 3.451,-4.004 3.428,-4.02 3.407,-4.037 3.369,-4.052 3.318,-4.067 3.267,-4.081 3.204,-4.088 3.132,-4.088 c -0.056,0 -0.115,0.007 -0.176,0.021 -0.06,0.015 -0.13,0.042 -0.211,0.082 -0.08,0.039 -0.172,0.093 -0.279,0.159 -0.105,0.065 -0.228,0.15 -0.367,0.253 C 1.978,-3.655 1.852,-3.73 1.723,-3.796 1.594,-3.862 1.459,-3.916 1.319,-3.96 1.178,-4.004 1.033,-4.037 0.883,-4.061 0.734,-4.084 0.574,-4.095 0.404,-4.095 c -0.168,0 -0.332,0.012 -0.493,0.038 -0.16,0.026 -0.31,0.065 -0.451,0.118 -0.14,0.053 -0.268,0.12 -0.384,0.199 -0.117,0.081 -0.216,0.175 -0.298,0.285 -0.083,0.11 -0.148,0.235 -0.194,0.376 -0.047,0.14 -0.07,0.296 -0.07,0.466"
             style="fill:#1960aa;fill-opacity:1;fill-rule:nonzero;stroke:none"
             id="path100" /></g><g
           id="g102"
           transform="translate(503.036,738.367)"><path
             d="M 0,0 C 0,-0.025 -0.009,-0.049 -0.025,-0.069 -0.042,-0.09 -0.07,-0.107 -0.108,-0.12 c -0.039,-0.013 -0.091,-0.023 -0.156,-0.031 -0.064,-0.008 -0.147,-0.012 -0.248,-0.012 -0.097,0 -0.179,0.004 -0.245,0.012 -0.066,0.008 -0.118,0.018 -0.157,0.031 -0.039,0.013 -0.066,0.03 -0.083,0.051 -0.017,0.02 -0.025,0.044 -0.025,0.069 v 4.73 c 0,0.026 0.008,0.049 0.025,0.07 0.017,0.021 0.045,0.037 0.085,0.051 0.04,0.012 0.093,0.022 0.157,0.03 0.065,0.008 0.146,0.012 0.243,0.012 0.101,0 0.184,-0.004 0.248,-0.012 0.065,-0.008 0.117,-0.018 0.156,-0.03 C -0.07,4.837 -0.042,4.821 -0.025,4.8 -0.009,4.779 0,4.756 0,4.73 Z"
             style="fill:#1960aa;fill-opacity:1;fill-rule:nonzero;stroke:none"
             id="path104" /></g><g
           id="g106"
           transform="translate(508.258,738.584)"><path
             d="M 0,0 C 0,-0.059 -0.011,-0.112 -0.031,-0.159 -0.052,-0.205 -0.079,-0.244 -0.114,-0.275 -0.149,-0.306 -0.19,-0.328 -0.238,-0.342 -0.286,-0.356 -0.334,-0.364 -0.383,-0.364 h -0.433 c -0.091,0 -0.169,0.01 -0.235,0.028 -0.066,0.018 -0.127,0.05 -0.181,0.098 -0.056,0.048 -0.11,0.113 -0.162,0.194 -0.051,0.081 -0.109,0.186 -0.173,0.315 l -1.247,2.342 c -0.073,0.139 -0.146,0.29 -0.221,0.451 -0.074,0.161 -0.142,0.318 -0.201,0.47 h -0.008 c 0.011,-0.185 0.018,-0.371 0.023,-0.555 0.005,-0.185 0.008,-0.375 0.008,-0.571 v -2.621 c 0,-0.026 -0.007,-0.049 -0.021,-0.069 -0.014,-0.021 -0.038,-0.038 -0.074,-0.052 -0.035,-0.015 -0.082,-0.026 -0.141,-0.034 -0.06,-0.007 -0.135,-0.011 -0.229,-0.011 -0.09,0 -0.165,0.004 -0.223,0.011 -0.06,0.008 -0.107,0.019 -0.14,0.034 -0.034,0.014 -0.057,0.031 -0.07,0.052 -0.013,0.02 -0.019,0.043 -0.019,0.069 v 4.502 c 0,0.122 0.035,0.213 0.107,0.273 0.07,0.061 0.157,0.091 0.26,0.091 h 0.546 c 0.099,0 0.181,-0.009 0.248,-0.025 0.067,-0.017 0.127,-0.045 0.18,-0.084 0.053,-0.038 0.102,-0.092 0.149,-0.16 0.046,-0.069 0.094,-0.153 0.143,-0.254 L -1.521,2.299 C -1.465,2.188 -1.408,2.08 -1.353,1.972 -1.298,1.865 -1.244,1.758 -1.192,1.651 -1.141,1.544 -1.09,1.439 -1.041,1.336 -0.992,1.232 -0.944,1.129 -0.898,1.026 h 0.003 c -0.007,0.18 -0.012,0.369 -0.016,0.565 -0.004,0.196 -0.006,0.383 -0.006,0.561 v 2.35 c 0,0.026 0.008,0.049 0.022,0.07 0.016,0.02 0.042,0.038 0.079,0.054 0.036,0.016 0.084,0.026 0.142,0.033 0.06,0.006 0.136,0.01 0.229,0.01 0.088,0 0.161,-0.004 0.22,-0.01 0.06,-0.007 0.106,-0.017 0.138,-0.033 C -0.055,4.61 -0.032,4.592 -0.02,4.572 -0.007,4.551 0,4.528 0,4.502 Z"
             style="fill:#1960aa;fill-opacity:1;fill-rule:nonzero;stroke:none"
             id="path108" /></g><g
           id="g110"
           transform="translate(511.842,738.406)"><path
             d="m 0,0 c -0.013,-0.044 -0.029,-0.08 -0.05,-0.107 -0.02,-0.027 -0.054,-0.047 -0.1,-0.062 -0.047,-0.014 -0.111,-0.023 -0.19,-0.027 -0.08,-0.004 -0.184,-0.006 -0.314,-0.006 -0.103,0 -0.192,0.001 -0.265,0.002 -0.073,0.002 -0.136,0.005 -0.187,0.01 -0.052,0.005 -0.094,0.013 -0.126,0.023 -0.033,0.011 -0.06,0.023 -0.081,0.039 -0.023,0.016 -0.04,0.034 -0.051,0.056 -0.012,0.022 -0.023,0.05 -0.033,0.083 l -1.491,4.44 c -0.03,0.093 -0.05,0.167 -0.055,0.221 -0.007,0.054 0.005,0.095 0.039,0.122 0.032,0.027 0.087,0.044 0.164,0.05 0.077,0.007 0.185,0.01 0.325,0.01 0.118,0 0.212,-0.003 0.278,-0.008 0.068,-0.005 0.119,-0.014 0.156,-0.027 0.036,-0.013 0.061,-0.032 0.075,-0.058 0.014,-0.026 0.028,-0.058 0.041,-0.097 l 1.219,-3.863 h 0.003 L 0.554,4.645 C 0.564,4.689 0.577,4.724 0.593,4.751 0.608,4.778 0.635,4.8 0.672,4.815 0.709,4.83 0.763,4.841 0.833,4.846 0.902,4.851 0.998,4.854 1.119,4.854 1.237,4.854 1.33,4.85 1.396,4.842 1.462,4.834 1.507,4.816 1.531,4.786 1.556,4.756 1.563,4.715 1.555,4.661 1.546,4.606 1.525,4.534 1.494,4.444 Z"
             style="fill:#1960aa;fill-opacity:1;fill-rule:nonzero;stroke:none"
             id="path112" /></g><g
           id="g114"
           transform="translate(517.006,738.627)"><path
             d="m 0,0 c 0,-0.075 -0.003,-0.138 -0.01,-0.188 -0.006,-0.05 -0.015,-0.091 -0.028,-0.122 -0.013,-0.031 -0.029,-0.053 -0.049,-0.067 -0.019,-0.015 -0.04,-0.022 -0.063,-0.022 h -2.517 c -0.085,0 -0.156,0.025 -0.215,0.076 -0.057,0.05 -0.087,0.132 -0.087,0.245 v 4.367 c 0,0.113 0.03,0.195 0.087,0.246 0.059,0.05 0.13,0.075 0.215,0.075 h 2.501 c 0.023,0 0.044,-0.006 0.062,-0.019 0.018,-0.013 0.034,-0.036 0.046,-0.068 0.013,-0.032 0.023,-0.074 0.03,-0.124 0.006,-0.05 0.009,-0.114 0.009,-0.191 0,-0.073 -0.003,-0.134 -0.009,-0.185 C -0.035,3.973 -0.045,3.933 -0.058,3.902 -0.07,3.871 -0.086,3.848 -0.104,3.834 -0.122,3.82 -0.143,3.813 -0.166,3.813 H -1.954 V 2.589 h 1.514 c 0.022,0 0.044,-0.006 0.063,-0.021 0.02,-0.014 0.035,-0.036 0.048,-0.066 C -0.315,2.473 -0.306,2.433 -0.3,2.382 -0.293,2.332 -0.29,2.271 -0.29,2.198 -0.29,2.124 -0.293,2.062 -0.3,2.013 -0.306,1.963 -0.315,1.924 -0.329,1.895 -0.342,1.865 -0.357,1.844 -0.377,1.831 -0.396,1.818 -0.418,1.812 -0.44,1.812 H -1.954 V 0.398 h 1.804 c 0.023,0 0.044,-0.007 0.063,-0.021 C -0.067,0.363 -0.051,0.34 -0.038,0.31 -0.025,0.278 -0.016,0.238 -0.01,0.187 -0.003,0.137 0,0.075 0,0"
             style="fill:#1960aa;fill-opacity:1;fill-rule:nonzero;stroke:none"
             id="path116" /></g><g
           id="g118"
           transform="translate(520.796,739.73)"><path
             d="m 0,0 c 0,-0.263 -0.049,-0.494 -0.147,-0.693 -0.098,-0.199 -0.231,-0.365 -0.399,-0.497 -0.168,-0.133 -0.364,-0.233 -0.588,-0.3 -0.224,-0.068 -0.465,-0.101 -0.72,-0.101 -0.173,0 -0.334,0.014 -0.482,0.043 -0.148,0.028 -0.279,0.062 -0.393,0.102 -0.114,0.04 -0.209,0.082 -0.285,0.126 -0.076,0.044 -0.131,0.083 -0.164,0.116 -0.034,0.034 -0.057,0.082 -0.072,0.145 -0.014,0.063 -0.021,0.154 -0.021,0.273 0,0.08 0.002,0.147 0.007,0.202 0.006,0.054 0.014,0.098 0.026,0.131 0.011,0.034 0.027,0.057 0.047,0.072 0.019,0.014 0.042,0.021 0.067,0.021 0.036,0 0.087,-0.021 0.153,-0.064 0.066,-0.042 0.151,-0.09 0.253,-0.141 0.104,-0.052 0.227,-0.099 0.37,-0.141 0.144,-0.043 0.309,-0.065 0.497,-0.065 0.124,0 0.236,0.016 0.333,0.045 0.098,0.03 0.182,0.072 0.25,0.126 0.069,0.054 0.121,0.121 0.157,0.201 0.036,0.08 0.054,0.169 0.054,0.267 0,0.114 -0.031,0.211 -0.092,0.293 -0.063,0.081 -0.143,0.153 -0.243,0.216 -0.099,0.063 -0.212,0.123 -0.338,0.179 -0.126,0.055 -0.257,0.113 -0.391,0.175 -0.135,0.063 -0.265,0.133 -0.392,0.211 -0.126,0.079 -0.239,0.173 -0.338,0.283 -0.099,0.11 -0.18,0.239 -0.242,0.389 -0.062,0.15 -0.093,0.329 -0.093,0.538 0,0.24 0.044,0.451 0.133,0.633 0.09,0.182 0.209,0.333 0.361,0.453 0.151,0.12 0.329,0.21 0.534,0.269 0.205,0.059 0.423,0.089 0.652,0.089 0.118,0 0.237,-0.009 0.357,-0.027 C -1.031,3.551 -0.92,3.526 -0.816,3.496 -0.714,3.464 -0.622,3.43 -0.542,3.391 -0.462,3.352 -0.409,3.32 -0.384,3.294 -0.357,3.268 -0.34,3.247 -0.331,3.229 -0.322,3.21 -0.314,3.187 -0.308,3.157 -0.302,3.127 -0.297,3.089 -0.294,3.044 -0.292,3 -0.29,2.943 -0.29,2.876 -0.29,2.801 -0.292,2.738 -0.296,2.687 -0.3,2.635 -0.307,2.592 -0.315,2.559 -0.324,2.525 -0.338,2.5 -0.354,2.485 -0.371,2.47 -0.394,2.462 -0.422,2.462 -0.45,2.462 -0.495,2.48 -0.558,2.516 -0.619,2.552 -0.695,2.591 -0.786,2.634 -0.876,2.677 -0.98,2.715 -1.1,2.75 -1.218,2.785 -1.349,2.803 -1.49,2.803 -1.602,2.803 -1.698,2.789 -1.78,2.762 -1.863,2.735 -1.933,2.697 -1.988,2.649 -2.043,2.602 -2.085,2.544 -2.111,2.477 -2.139,2.41 -2.152,2.339 -2.152,2.265 c 0,-0.112 0.03,-0.208 0.09,-0.289 C -2.001,1.895 -1.92,1.822 -1.817,1.759 -1.716,1.696 -1.601,1.637 -1.471,1.581 -1.342,1.526 -1.21,1.467 -1.076,1.405 -0.942,1.343 -0.811,1.273 -0.682,1.194 -0.553,1.115 -0.437,1.021 -0.337,0.912 -0.236,0.802 -0.155,0.673 -0.093,0.524 -0.031,0.376 0,0.201 0,0"
             style="fill:#1960aa;fill-opacity:1;fill-rule:nonzero;stroke:none"
             id="path120" /></g><g
           id="g122"
           transform="translate(524.829,742.819)"><path
             d="m 0,0 c 0,-0.075 -0.003,-0.139 -0.01,-0.191 -0.007,-0.054 -0.015,-0.096 -0.029,-0.128 -0.013,-0.033 -0.028,-0.057 -0.048,-0.072 -0.019,-0.015 -0.041,-0.023 -0.064,-0.023 h -1.254 v -4.038 c 0,-0.025 -0.008,-0.049 -0.026,-0.069 -0.016,-0.021 -0.044,-0.038 -0.083,-0.05 -0.038,-0.014 -0.09,-0.024 -0.156,-0.032 -0.066,-0.007 -0.148,-0.011 -0.246,-0.011 -0.099,0 -0.18,0.004 -0.246,0.011 -0.066,0.008 -0.118,0.018 -0.156,0.032 -0.039,0.012 -0.067,0.029 -0.084,0.05 -0.017,0.02 -0.025,0.044 -0.025,0.069 v 4.038 h -1.255 c -0.025,0 -0.047,0.008 -0.065,0.023 -0.018,0.015 -0.033,0.039 -0.047,0.072 -0.013,0.032 -0.022,0.074 -0.028,0.128 -0.007,0.052 -0.01,0.116 -0.01,0.191 0,0.078 0.003,0.143 0.01,0.198 0.006,0.053 0.015,0.097 0.028,0.129 0.014,0.032 0.029,0.056 0.047,0.07 0.018,0.014 0.04,0.021 0.065,0.021 h 3.531 c 0.023,0 0.045,-0.007 0.064,-0.021 0.02,-0.014 0.035,-0.038 0.048,-0.07 C -0.025,0.295 -0.017,0.251 -0.01,0.198 -0.003,0.143 0,0.078 0,0"
             style="fill:#1960aa;fill-opacity:1;fill-rule:nonzero;stroke:none"
             id="path124" /></g><g
           id="g126"
           transform="translate(531.259,738.367)"><path
             d="M 0,0 C 0,-0.025 -0.007,-0.049 -0.021,-0.069 -0.035,-0.09 -0.062,-0.107 -0.099,-0.12 -0.136,-0.133 -0.186,-0.143 -0.248,-0.151 -0.31,-0.159 -0.389,-0.163 -0.483,-0.163 c -0.094,0 -0.171,0.004 -0.233,0.012 -0.062,0.008 -0.111,0.018 -0.147,0.031 -0.036,0.013 -0.062,0.03 -0.077,0.051 -0.016,0.02 -0.024,0.044 -0.024,0.069 V 4.076 H -0.972 L -2.423,0.004 c -0.011,-0.033 -0.027,-0.061 -0.051,-0.083 -0.023,-0.022 -0.054,-0.04 -0.094,-0.052 -0.04,-0.014 -0.091,-0.022 -0.153,-0.026 -0.062,-0.004 -0.137,-0.006 -0.224,-0.006 -0.088,0 -0.163,0.004 -0.225,0.01 -0.062,0.007 -0.113,0.017 -0.153,0.031 -0.04,0.015 -0.072,0.032 -0.095,0.053 -0.023,0.02 -0.039,0.045 -0.047,0.073 l -1.4,4.072 H -4.873 V 0 c 0,-0.025 -0.008,-0.049 -0.022,-0.069 -0.014,-0.021 -0.041,-0.038 -0.079,-0.051 -0.039,-0.013 -0.088,-0.023 -0.149,-0.031 -0.061,-0.008 -0.139,-0.012 -0.234,-0.012 -0.093,0 -0.17,0.004 -0.233,0.012 -0.061,0.008 -0.111,0.018 -0.148,0.031 -0.038,0.013 -0.064,0.03 -0.078,0.051 -0.014,0.02 -0.021,0.044 -0.021,0.069 v 4.463 c 0,0.132 0.034,0.233 0.105,0.302 0.069,0.07 0.162,0.105 0.278,0.105 h 0.666 c 0.118,0 0.221,-0.01 0.306,-0.029 0.085,-0.02 0.159,-0.052 0.22,-0.097 C -4.2,4.699 -4.148,4.64 -4.107,4.566 -4.065,4.492 -4.029,4.401 -3.999,4.293 l 1.084,-2.984 h 0.016 l 1.123,2.976 c 0.033,0.109 0.07,0.2 0.11,0.275 0.04,0.075 0.086,0.136 0.139,0.182 0.053,0.047 0.116,0.079 0.188,0.099 0.072,0.019 0.155,0.029 0.251,0.029 h 0.686 c 0.069,0 0.13,-0.009 0.179,-0.027 0.051,-0.018 0.092,-0.045 0.124,-0.08 C -0.066,4.729 -0.042,4.686 -0.025,4.636 -0.009,4.586 0,4.528 0,4.463 Z"
             style="fill:#1960aa;fill-opacity:1;fill-rule:nonzero;stroke:none"
             id="path128" /></g><g
           id="g130"
           transform="translate(535.319,738.627)"><path
             d="m 0,0 c 0,-0.075 -0.003,-0.138 -0.01,-0.188 -0.007,-0.05 -0.016,-0.091 -0.029,-0.122 -0.013,-0.031 -0.028,-0.053 -0.048,-0.067 -0.019,-0.015 -0.041,-0.022 -0.064,-0.022 h -2.516 c -0.085,0 -0.157,0.025 -0.215,0.076 -0.058,0.05 -0.087,0.132 -0.087,0.245 v 4.367 c 0,0.113 0.029,0.195 0.087,0.246 0.058,0.05 0.13,0.075 0.215,0.075 h 2.5 c 0.023,0 0.044,-0.006 0.063,-0.019 0.017,-0.013 0.033,-0.036 0.045,-0.068 0.014,-0.032 0.024,-0.074 0.03,-0.124 C -0.022,4.349 -0.02,4.285 -0.02,4.208 -0.02,4.135 -0.022,4.074 -0.029,4.023 -0.035,3.973 -0.045,3.933 -0.059,3.902 -0.071,3.871 -0.087,3.848 -0.104,3.834 -0.123,3.82 -0.144,3.813 -0.167,3.813 H -1.955 V 2.589 h 1.514 c 0.023,0 0.045,-0.006 0.063,-0.021 0.02,-0.014 0.036,-0.036 0.049,-0.066 C -0.316,2.473 -0.307,2.433 -0.3,2.382 -0.294,2.332 -0.29,2.271 -0.29,2.198 -0.29,2.124 -0.294,2.062 -0.3,2.013 -0.307,1.963 -0.316,1.924 -0.329,1.895 -0.342,1.865 -0.358,1.844 -0.378,1.831 -0.396,1.818 -0.418,1.812 -0.441,1.812 H -1.955 V 0.398 h 1.804 c 0.023,0 0.045,-0.007 0.064,-0.021 C -0.067,0.363 -0.052,0.34 -0.039,0.31 -0.026,0.278 -0.017,0.238 -0.01,0.187 -0.003,0.137 0,0.075 0,0"
             style="fill:#1960aa;fill-opacity:1;fill-rule:nonzero;stroke:none"
             id="path132" /></g><g
           id="g134"
           transform="translate(540.348,738.584)"><path
             d="M 0,0 C 0,-0.059 -0.011,-0.112 -0.031,-0.159 -0.052,-0.205 -0.079,-0.244 -0.114,-0.275 -0.149,-0.306 -0.19,-0.328 -0.238,-0.342 -0.286,-0.356 -0.334,-0.364 -0.383,-0.364 h -0.433 c -0.091,0 -0.169,0.01 -0.235,0.028 -0.066,0.018 -0.127,0.05 -0.181,0.098 -0.056,0.048 -0.11,0.113 -0.162,0.194 -0.051,0.081 -0.109,0.186 -0.173,0.315 l -1.247,2.342 c -0.073,0.139 -0.146,0.29 -0.221,0.451 -0.074,0.161 -0.142,0.318 -0.201,0.47 h -0.008 c 0.011,-0.185 0.018,-0.371 0.023,-0.555 0.005,-0.185 0.008,-0.375 0.008,-0.571 v -2.621 c 0,-0.026 -0.007,-0.049 -0.021,-0.069 -0.014,-0.021 -0.038,-0.038 -0.074,-0.052 -0.035,-0.015 -0.082,-0.026 -0.141,-0.034 -0.06,-0.007 -0.135,-0.011 -0.229,-0.011 -0.09,0 -0.165,0.004 -0.223,0.011 -0.06,0.008 -0.107,0.019 -0.14,0.034 -0.034,0.014 -0.057,0.031 -0.07,0.052 -0.013,0.02 -0.019,0.043 -0.019,0.069 v 4.502 c 0,0.122 0.035,0.213 0.107,0.273 0.07,0.061 0.157,0.091 0.26,0.091 h 0.546 c 0.099,0 0.181,-0.009 0.248,-0.025 0.067,-0.017 0.127,-0.045 0.18,-0.084 0.053,-0.038 0.102,-0.092 0.149,-0.16 0.046,-0.069 0.094,-0.153 0.143,-0.254 L -1.521,2.299 C -1.465,2.188 -1.408,2.08 -1.353,1.972 -1.298,1.865 -1.244,1.758 -1.192,1.651 -1.141,1.544 -1.09,1.439 -1.041,1.336 -0.992,1.232 -0.944,1.129 -0.898,1.026 h 0.003 c -0.007,0.18 -0.012,0.369 -0.016,0.565 -0.004,0.196 -0.006,0.383 -0.006,0.561 v 2.35 c 0,0.026 0.008,0.049 0.022,0.07 0.016,0.02 0.042,0.038 0.079,0.054 0.036,0.016 0.084,0.026 0.142,0.033 0.06,0.006 0.136,0.01 0.229,0.01 0.088,0 0.161,-0.004 0.22,-0.01 0.06,-0.007 0.106,-0.017 0.138,-0.033 C -0.055,4.61 -0.032,4.592 -0.02,4.572 -0.007,4.551 0,4.528 0,4.502 Z"
             style="fill:#1960aa;fill-opacity:1;fill-rule:nonzero;stroke:none"
             id="path136" /></g><g
           id="g138"
           transform="translate(544.772,742.819)"><path
             d="m 0,0 c 0,-0.075 -0.003,-0.139 -0.01,-0.191 -0.007,-0.054 -0.015,-0.096 -0.029,-0.128 -0.013,-0.033 -0.028,-0.057 -0.048,-0.072 -0.019,-0.015 -0.041,-0.023 -0.064,-0.023 h -1.254 v -4.038 c 0,-0.025 -0.008,-0.049 -0.026,-0.069 -0.016,-0.021 -0.044,-0.038 -0.083,-0.05 -0.038,-0.014 -0.09,-0.024 -0.156,-0.032 -0.066,-0.007 -0.148,-0.011 -0.246,-0.011 -0.099,0 -0.18,0.004 -0.246,0.011 -0.066,0.008 -0.118,0.018 -0.156,0.032 -0.039,0.012 -0.067,0.029 -0.084,0.05 -0.017,0.02 -0.025,0.044 -0.025,0.069 v 4.038 h -1.255 c -0.025,0 -0.047,0.008 -0.065,0.023 -0.018,0.015 -0.033,0.039 -0.047,0.072 -0.013,0.032 -0.022,0.074 -0.028,0.128 -0.007,0.052 -0.01,0.116 -0.01,0.191 0,0.078 0.003,0.143 0.01,0.198 0.006,0.053 0.015,0.097 0.028,0.129 0.014,0.032 0.029,0.056 0.047,0.07 0.018,0.014 0.04,0.021 0.065,0.021 h 3.531 c 0.023,0 0.045,-0.007 0.064,-0.021 0.02,-0.014 0.035,-0.038 0.048,-0.07 C -0.025,0.295 -0.017,0.251 -0.01,0.198 -0.003,0.143 0,0.078 0,0"
             style="fill:#1960aa;fill-opacity:1;fill-rule:nonzero;stroke:none"
             id="path140" /></g></g></g></g></svg>
