<?xml version="1.0" encoding="utf-8"?>
<!-- Generator: Adobe Illustrator 26.0.3, SVG Export Plug-In . SVG Version: 6.00 Build 0)  -->
<svg version="1.0" id="Layer_1" xmlns="http://www.w3.org/2000/svg" xmlns:xlink="http://www.w3.org/1999/xlink" x="0px" y="0px"
	 viewBox="0 0 1038.1 736.2" style="enable-background:new 0 0 1038.1 736.2;" xml:space="preserve">
<style type="text/css">
	.st0{fill:#E80407;}
	
		.st1{fill:url(#path3309_00000058576180405988924480000010323499578392527758_);stroke:url(#path3309_00000150794533000748285410000013645019035951569339_);stroke-width:5.47;stroke-linejoin:bevel;}
	
		.st2{fill:url(#path3315_00000005971141085344287850000000721012849328647073_);stroke:url(#path3315_00000152250625755214748850000010455932755271019160_);stroke-width:5.29;stroke-linejoin:bevel;}
	.st3{fill:url(#path3355_00000075856346008396148180000001783396854855960217_);}
</style>
<g id="layer1">
	<path id="text3303" class="st0" d="M249.8,559.7v22c-4.8-2.4-9.9-4.4-15.1-5.8c-4.5-1.2-9.2-1.9-13.9-2c-5.8,0-10.1,0.9-12.8,2.6
		s-4.1,4.5-4.1,8.2c-0.1,2.5,0.9,4.9,2.8,6.5c1.9,1.6,5.2,2.9,10.1,4l10.3,2.3c10.4,2.3,17.8,5.8,22.2,10.6
		c4.4,4.7,6.6,11.4,6.6,20.2c0,11.5-3.1,20-9.2,25.5c-6.1,5.6-15.5,8.4-28.1,8.4c-6,0-12-0.6-17.9-1.9c-6.2-1.3-12.2-3.2-18-5.6
		v-22.6c5.5,3.3,11.3,6,17.4,8c5.2,1.7,10.7,2.6,16.2,2.7c5.3,0,9.3-1,12.1-2.9c2.8-1.9,4.4-5,4.2-8.3c0-3.2-1-5.7-2.9-7.5
		c-1.9-1.8-5.7-3.3-11.4-4.7l-9.3-2.3c-9.4-2.2-16.2-5.8-20.6-10.6c-4.3-4.9-6.5-11.4-6.5-19.7c0-10.3,3-18.3,9-23.8
		c6-5.6,14.7-8.3,26-8.3c5.3,0,10.6,0.4,15.9,1.3C238.6,556.7,244.2,558,249.8,559.7L249.8,559.7z M333.1,584.8v20.3
		c-2.8-2.2-5.9-3.9-9.2-5.1c-3.1-1.1-6.3-1.7-9.6-1.7c-6.3,0-11.2,2-14.7,6.1s-5.2,9.7-5.2,17c0,7.3,1.7,12.9,5.2,17
		c3.5,4.1,8.4,6.1,14.7,6.1c6.9,0.1,13.6-2.4,18.8-6.9v20.4c-3.5,1.4-7,2.5-10.7,3.2c-3.6,0.7-7.2,1.1-10.9,1.1
		c-12.7,0-22.6-3.6-29.8-10.8s-10.8-17.2-10.7-30c0-12.8,3.6-22.9,10.7-30.1s17.1-10.8,29.8-10.9c3.7,0,7.3,0.4,10.9,1.1
		C326.1,582.3,329.7,583.4,333.1,584.8z M423.4,612.8v47.4h-22.6V624c0-6.8-0.1-11.5-0.4-14c-0.1-1.9-0.6-3.9-1.4-5.6
		c-1.7-3.2-5.1-5.2-8.7-5.1c-4.5-0.1-8.7,2.2-11,6c-2.7,4-4,9.5-4,16.6v38.3h-22.5V552h22.5v41.7c2.9-4,6.5-7.5,10.8-10
		c3.8-2.2,8.2-3.3,12.6-3.3c8.1,0,14.3,2.8,18.5,8.3S423.4,602.3,423.4,612.8L423.4,612.8z M444.4,582.3h22.5v77.8h-22.5
		L444.4,582.3z M444.4,552h22.5v20.3h-22.5L444.4,552z M559.3,612.8v47.4h-22.6v-36.3c0-6.7-0.1-11.4-0.4-13.9
		c-0.1-1.9-0.6-3.9-1.4-5.6c-1.7-3.2-5.1-5.2-8.7-5.1c-4.5-0.1-8.7,2.2-11.1,6c-2.7,4-4,9.5-4,16.6v38.3h-22.5v-77.8h22.5v11.4
		c2.9-4,6.5-7.5,10.8-10c3.8-2.2,8.2-3.3,12.6-3.3c8.1,0,14.3,2.8,18.5,8.3C557.2,594.2,559.3,602.3,559.3,612.8L559.3,612.8z
		 M628.2,593.8v-41.7h22.6v108.1h-22.6v-11.3c-2.6,4.1-6.1,7.5-10.2,10.1c-4,2.2-8.4,3.3-12.9,3.2c-8.7,0-15.8-3.8-21.4-11.4
		c-5.6-7.6-8.4-17.4-8.3-29.4c0-12,2.8-21.8,8.3-29.4s12.7-11.4,21.4-11.4c4.5-0.1,9,1,12.9,3.2C622,586.2,625.5,589.6,628.2,593.8
		L628.2,593.8z M613.3,644.2c4.5,0.2,8.7-2.1,11-5.8c2.5-3.9,3.8-9.6,3.8-17s-1.3-13.1-3.8-17c-4.1-6.1-12.3-7.7-18.4-3.6
		c-1.4,1-2.6,2.2-3.6,3.6c-2.5,3.9-3.8,9.6-3.8,17s1.3,13.1,3.8,17C604.7,642.1,608.9,644.3,613.3,644.2z M672.5,552.1H695v108.1
		h-22.5L672.5,552.1z M786.9,621.1v7.1h-52.6c0.6,5.8,2.5,10.2,5.7,13.1c3.3,2.9,7.8,4.4,13.7,4.4c4.9,0,9.8-0.8,14.5-2.3
		c5.4-1.7,10.5-4.1,15.3-7v19.2c-5.2,2.2-10.5,3.8-16,5c-5.2,1.1-10.6,1.7-16,1.7c-12.7,0-22.6-3.6-29.7-10.7
		c-7.1-7.2-10.6-17.2-10.6-30.1c0-12.7,3.5-22.7,10.4-30c6.9-7.3,16.5-10.9,28.7-10.9c11.1,0,19.9,3.7,26.5,11
		S786.9,608.6,786.9,621.1L786.9,621.1z M763.8,612.8c0-4.7-1.2-8.5-3.7-11.4c-2.4-2.9-6-4.5-9.8-4.3c-3.9-0.2-7.8,1.3-10.6,4.1
		c-2.7,2.7-4.4,6.6-5.1,11.7L763.8,612.8z M856.1,603.6c-1.9-1-3.8-1.7-5.9-2.3c-1.9-0.5-3.9-0.7-5.9-0.7c-5.8,0-10.2,2-13.3,6.2
		s-4.7,10-4.7,17.6v35.9h-22.5v-77.8h22.5v12.8c2.9-5.1,6.2-8.8,10-11.2c4.1-2.4,8.7-3.6,13.4-3.5c0.8,0,1.6,0,2.5,0.1
		s2.2,0.2,3.8,0.5L856.1,603.6z"/>
	
		<linearGradient id="path3309_00000124138088544205146730000017737995003803879349_" gradientUnits="userSpaceOnUse" x1="551.4766" y1="122.7033" x2="596.1266" y2="174.0533" gradientTransform="matrix(5.47 0 0 5.47 -2613.3098 -504.6)">
		<stop  offset="0" style="stop-color:#EDEDED"/>
		<stop  offset="0.64" style="stop-color:#B7B7B7"/>
		<stop  offset="1" style="stop-color:#E7E7E7"/>
	</linearGradient>
	
		<linearGradient id="path3309_00000061471519920381376820000007648627269097452700_" gradientUnits="userSpaceOnUse" x1="539.5527" y1="120.9209" x2="604.0928" y2="171.5809" gradientTransform="matrix(5.47 0 0 5.47 -2613.3098 -504.6)">
		<stop  offset="0" style="stop-color:#C8C8C8"/>
		<stop  offset="0.66" style="stop-color:#191919"/>
		<stop  offset="1" style="stop-color:#ABABAB"/>
	</linearGradient>
	
		<path id="path3309" style="fill:url(#path3309_00000124138088544205146730000017737995003803879349_);stroke:url(#path3309_00000061471519920381376820000007648627269097452700_);stroke-width:5.47;stroke-linejoin:bevel;" d="
		M516.9,76.7c-121,0-220.4,99.4-220.4,220.4s99.4,220.4,220.4,220.4s220.3-99.4,220.3-220.4S637.9,76.7,516.9,76.7z M516.9,193.6
		c57.8,0,103.4,45.8,103.4,103.6s-45.6,103.6-103.4,103.6S413.3,355,413.3,297.2S459.1,193.6,516.9,193.6z"/>
	
		<linearGradient id="path3315_00000154422920304902588460000010553202885894186680_" gradientUnits="userSpaceOnUse" x1="561.64" y1="158.4137" x2="572.16" y2="177.6237" gradientTransform="matrix(5.29 0 0 5.29 -2509.1899 -470.2199)">
		<stop  offset="0" style="stop-color:#747474"/>
		<stop  offset="1" style="stop-color:#E5E5E5"/>
	</linearGradient>
	
		<linearGradient id="path3315_00000056419162173523565740000006795751400738867625_" gradientUnits="userSpaceOnUse" x1="581.3967" y1="160.4776" x2="582.9967" y2="159.2876" gradientTransform="matrix(5.29 0 0 5.29 -2509.1899 -470.2199)">
		<stop  offset="0" style="stop-color:#C4C4C4"/>
		<stop  offset="1" style="stop-color:#191919"/>
	</linearGradient>
	
		<path id="path3315" style="fill:url(#path3315_00000154422920304902588460000010553202885894186680_);stroke:url(#path3315_00000056419162173523565740000006795751400738867625_);stroke-width:5.29;stroke-linejoin:bevel;" d="
		M394.2,467.6l123.2-180l121.6,180.3"/>
	
		<linearGradient id="path3355_00000055678447108941465080000009854282044973690767_" gradientUnits="userSpaceOnUse" x1="559.6315" y1="158.7517" x2="570.1515" y2="177.9617" gradientTransform="matrix(5.12 0 0 5.12 -2406.6101 -443.49)">
		<stop  offset="0" style="stop-color:#747474"/>
		<stop  offset="1" style="stop-color:#E5E5E5"/>
	</linearGradient>
	<path id="path3355" style="fill:url(#path3355_00000055678447108941465080000009854282044973690767_);" d="M642,475.2
		c-83.2,55.7-175.3,50-250.7-0.3l126.1-184.3L642,475.2z"/>
</g>
</svg>
