<?xml version="1.0" encoding="UTF-8"?>
<!DOCTYPE svg PUBLIC "-//W3C//DTD SVG 1.1//EN" "http://www.w3.org/Graphics/SVG/1.1/DTD/svg11.dtd">
<svg xmlns="http://www.w3.org/2000/svg" version="1.1" width="960px" height="1315px" style="shape-rendering:geometricPrecision; text-rendering:geometricPrecision; image-rendering:optimizeQuality; fill-rule:evenodd; clip-rule:evenodd" xmlns:xlink="http://www.w3.org/1999/xlink">
<g><path style="opacity:0.994" fill="#fef100" d="M 88.5,85.5 C 349.167,85.5 609.833,85.5 870.5,85.5C 870.5,346.5 870.5,607.5 870.5,868.5C 609.833,868.5 349.167,868.5 88.5,868.5C 88.5,607.5 88.5,346.5 88.5,85.5 Z"/></g>
<g><path style="opacity:1" fill="#f36e18" d="M 429.5,191.5 C 462.669,190.17 496.002,190.17 529.5,191.5C 529.376,192.107 529.043,192.44 528.5,192.5C 495.671,191.502 462.671,191.168 429.5,191.5 Z"/></g>
<g><path style="opacity:1" fill="#ec1e24" d="M 429.5,191.5 C 462.671,191.168 495.671,191.502 528.5,192.5C 505.833,245.167 483.167,297.833 460.5,350.5C 451.445,370.665 442.778,390.998 434.5,411.5C 427.507,427.471 420.507,443.471 413.5,459.5C 453.716,444.528 493.716,428.528 533.5,411.5C 562.259,400.857 590.759,389.524 619,377.5C 614.834,389.521 610.334,401.521 605.5,413.5C 595.167,439.5 584.833,465.5 574.5,491.5C 567.238,508.623 560.571,525.956 554.5,543.5C 545.928,563.656 537.595,583.99 529.5,604.5C 523.275,618.951 517.608,633.617 512.5,648.5C 494.4,692.614 476.567,736.947 459,781.5C 467.297,736.176 475.797,690.843 484.5,645.5C 488.527,628.708 492.194,611.708 495.5,594.5C 500.091,571.21 504.425,547.877 508.5,524.5C 511.526,513.221 514.192,501.721 516.5,490C 516.167,489.5 515.833,489 515.5,488.5C 473.315,506.996 431.315,525.663 389.5,544.5C 362.108,556.3 334.775,568.3 307.5,580.5C 307.167,580.167 306.833,579.833 306.5,579.5C 312.657,560.534 318.657,541.534 324.5,522.5C 330.124,506.028 335.458,489.361 340.5,472.5C 346.678,452.12 353.012,431.787 359.5,411.5C 364.804,395.252 370.138,378.918 375.5,362.5C 392.73,305.149 410.73,248.149 429.5,191.5 Z"/></g>
<g><path style="opacity:1" fill="#0aaeed" d="M 375.5,362.5 C 370.138,378.918 364.804,395.252 359.5,411.5C 342.692,400.806 324.359,396.973 304.5,400C 284.516,403.382 265.85,410.215 248.5,420.5C 247.503,403.675 247.17,386.675 247.5,369.5C 278.856,350.781 312.523,344.948 348.5,352C 357.734,354.952 366.734,358.452 375.5,362.5 Z"/></g>
<g><path style="opacity:1" fill="#0dadec" d="M 711.5,369.5 C 711.83,386.675 711.497,403.675 710.5,420.5C 686.74,403.81 660.407,397.31 631.5,401C 622.384,404.392 613.717,408.559 605.5,413.5C 610.334,401.521 614.834,389.521 619,377.5C 590.759,389.524 562.259,400.857 533.5,411.5C 500.481,395.562 467.481,395.562 434.5,411.5C 442.778,390.998 451.445,370.665 460.5,350.5C 474.852,347.767 489.185,347.934 503.5,351C 519.621,355.929 535.621,361.263 551.5,367C 564.973,370.642 578.306,370.309 591.5,366C 597.331,362.919 602.998,359.585 608.5,356C 624.115,349.01 640.448,346.677 657.5,349C 674.476,350.91 690.476,355.91 705.5,364C 707.996,365.331 709.996,367.164 711.5,369.5 Z"/></g>
<g><path style="opacity:1" fill="#3abcc0" d="M 247.5,369.5 C 247.17,386.675 247.503,403.675 248.5,420.5C 248.44,421.043 248.107,421.376 247.5,421.5C 246.173,404.005 246.173,386.671 247.5,369.5 Z"/></g>
<g><path style="opacity:1" fill="#1db7ca" d="M 711.5,369.5 C 712.827,386.671 712.827,404.005 711.5,421.5C 710.893,421.376 710.56,421.043 710.5,420.5C 711.497,403.675 711.83,386.675 711.5,369.5 Z"/></g>
<g><path style="opacity:1" fill="#fdf005" d="M 533.5,411.5 C 493.716,428.528 453.716,444.528 413.5,459.5C 420.507,443.471 427.507,427.471 434.5,411.5C 467.481,395.562 500.481,395.562 533.5,411.5 Z"/></g>
<g><path style="opacity:1" fill="#0caeed" d="M 340.5,472.5 C 335.458,489.361 330.124,506.028 324.5,522.5C 297.009,521.776 271.675,528.776 248.5,543.5C 247.503,526.341 247.17,509.008 247.5,491.5C 276.507,475.499 307.507,469.166 340.5,472.5 Z"/></g>
<g><path style="opacity:1" fill="#0caeed" d="M 554.5,543.5 C 560.571,525.956 567.238,508.623 574.5,491.5C 581.091,491.769 587.425,490.603 593.5,488C 615.458,472.168 639.792,467.168 666.5,473C 683.055,475.569 698.055,481.736 711.5,491.5C 712.666,509.157 712.833,526.824 712,544.5C 686.762,525.541 658.595,519.041 627.5,525C 617.708,529.73 608.041,534.73 598.5,540C 584.137,544.578 569.47,545.745 554.5,543.5 Z"/></g>
<g><path style="opacity:1" fill="#1eabe8" d="M 508.5,524.5 C 488.519,520.875 468.852,522.042 449.5,528C 437.729,533.552 425.729,538.552 413.5,543C 405.547,544.223 397.547,544.723 389.5,544.5C 431.315,525.663 473.315,506.996 515.5,488.5C 515.833,489 516.167,489.5 516.5,490C 514.192,501.721 511.526,513.221 508.5,524.5 Z"/></g>
<g><path style="opacity:1" fill="#3ebcbf" d="M 247.5,491.5 C 247.17,509.008 247.503,526.341 248.5,543.5C 248.44,544.043 248.107,544.376 247.5,544.5C 246.173,526.671 246.173,509.005 247.5,491.5 Z"/></g>
<g><path style="opacity:1" fill="#08aeed" d="M 495.5,594.5 C 492.194,611.708 488.527,628.708 484.5,645.5C 474.331,645.215 464.331,646.381 454.5,649C 440.727,655.22 426.727,660.887 412.5,666C 400.425,668.209 388.425,667.875 376.5,665C 363.404,658.451 350.07,652.451 336.5,647C 317.804,642.985 299.47,644.318 281.5,651C 269.96,655.104 258.96,660.271 248.5,666.5C 247.503,649.341 247.17,632.008 247.5,614.5C 278.31,596.506 311.31,590.672 346.5,597C 359.056,600.631 371.056,605.631 382.5,612C 391.712,614.953 401.045,615.286 410.5,613C 426.78,606.193 443.446,600.527 460.5,596C 472.124,594.668 483.79,594.168 495.5,594.5 Z"/></g>
<g><path style="opacity:1" fill="#0aaeed" d="M 711.5,614.5 C 711.83,631.675 711.497,648.675 710.5,665.5C 684.988,647.957 656.988,642.124 626.5,648C 615.625,653.937 604.625,659.604 593.5,665C 579.158,668.308 564.825,668.308 550.5,665C 537.86,659.174 525.194,653.674 512.5,648.5C 517.608,633.617 523.275,618.951 529.5,604.5C 549.667,615.049 570.667,617.216 592.5,611C 601.091,605.538 610.091,600.871 619.5,597C 649.286,590.865 677.619,594.865 704.5,609C 707.02,610.697 709.353,612.53 711.5,614.5 Z"/></g>
<g><path style="opacity:1" fill="#1bb7cb" d="M 711.5,614.5 C 712.662,631.995 712.829,649.662 712,667.5C 711.283,666.956 710.783,666.289 710.5,665.5C 711.497,648.675 711.83,631.675 711.5,614.5 Z"/></g>
<g><path style="opacity:1" fill="#3ebcbe" d="M 247.5,614.5 C 247.17,632.008 247.503,649.341 248.5,666.5C 248.44,667.043 248.107,667.376 247.5,667.5C 246.173,649.671 246.173,632.005 247.5,614.5 Z"/></g>
<g><path style="opacity:0.966" fill="#00aeef" d="M 88.5,985.5 C 130.168,985.333 171.835,985.5 213.5,986C 253.106,990.936 276.606,1013.1 284,1052.5C 289.628,1086.2 280.128,1114.7 255.5,1138C 245.046,1145.71 233.38,1150.71 220.5,1153C 196.836,1153.5 173.169,1153.67 149.5,1153.5C 149.5,1178.5 149.5,1203.5 149.5,1228.5C 129.167,1228.5 108.833,1228.5 88.5,1228.5C 88.5,1147.5 88.5,1066.5 88.5,985.5 Z M 149.5,1038.5 C 167.17,1038.33 184.836,1038.5 202.5,1039C 217.257,1043.64 224.257,1053.81 223.5,1069.5C 224.21,1086.29 216.543,1096.79 200.5,1101C 183.503,1101.5 166.503,1101.67 149.5,1101.5C 149.5,1080.5 149.5,1059.5 149.5,1038.5 Z"/></g>
<g><path style="opacity:0.957" fill="#00aeef" d="M 375.5,985.5 C 395.833,985.5 416.167,985.5 436.5,985.5C 436.5,1048.83 436.5,1112.17 436.5,1175.5C 474.833,1175.5 513.167,1175.5 551.5,1175.5C 551.5,1193.17 551.5,1210.83 551.5,1228.5C 492.833,1228.5 434.167,1228.5 375.5,1228.5C 375.5,1147.5 375.5,1066.5 375.5,985.5 Z"/></g>
<g><path style="opacity:0.968" fill="#00aeef" d="M 648.5,985.5 C 669.177,985.167 689.844,985.5 710.5,986.5C 743.472,1034.64 776.638,1082.64 810,1130.5C 810.5,1082.17 810.667,1033.83 810.5,985.5C 830.5,985.5 850.5,985.5 870.5,985.5C 870.5,1066.5 870.5,1147.5 870.5,1228.5C 848.497,1228.67 826.497,1228.5 804.5,1228C 773.123,1182.08 741.623,1136.25 710,1090.5C 709.5,1136.5 709.333,1182.5 709.5,1228.5C 689.167,1228.5 668.833,1228.5 648.5,1228.5C 648.5,1147.5 648.5,1066.5 648.5,985.5 Z"/></g>
</svg>
