<?xml version="1.0" encoding="UTF-8" standalone="no"?>
<svg
   xmlns:dc="http://purl.org/dc/elements/1.1/"
   xmlns:cc="http://creativecommons.org/ns#"
   xmlns:rdf="http://www.w3.org/1999/02/22-rdf-syntax-ns#"
   xmlns:svg="http://www.w3.org/2000/svg"
   xmlns="http://www.w3.org/2000/svg"
   xmlns:sodipodi="http://sodipodi.sourceforge.net/DTD/sodipodi-0.dtd"
   xmlns:inkscape="http://www.inkscape.org/namespaces/inkscape"
   version="1.1"
   id="svg2"
   xml:space="preserve"
   width="104.24933"
   height="91.944"
   viewBox="0 0 104.24933 91.943999"
   sodipodi:docname="waskita logo.svg"
   inkscape:version="1.0.1 (3bc2e813f5, 2020-09-07)"><metadata
     id="metadata8"><rdf:RDF><cc:Work
         rdf:about=""><dc:format>image/svg+xml</dc:format><dc:type
           rdf:resource="http://purl.org/dc/dcmitype/StillImage" /><dc:title></dc:title></cc:Work></rdf:RDF></metadata><defs
     id="defs6"><clipPath
       clipPathUnits="userSpaceOnUse"
       id="clipPath18"><path
         d="m 0.076,25.482 h 595.2 V 841.89 H 0.076 Z M 48.189,799.37 h 118.3 v -35.601 h -118.3 z"
         id="path16" /></clipPath><clipPath
       clipPathUnits="userSpaceOnUse"
       id="clipPath32"><path
         d="M 48.189,763.769 H 77.78 V 799.37 H 48.189 Z"
         id="path30" /></clipPath><clipPath
       clipPathUnits="userSpaceOnUse"
       id="clipPath46"><path
         d="m 77.738,763.769 h 29.633 V 799.37 H 77.738 Z"
         id="path44" /></clipPath><clipPath
       clipPathUnits="userSpaceOnUse"
       id="clipPath60"><path
         d="M 107.328,763.769 H 136.94 V 799.37 H 107.328 Z"
         id="path58" /></clipPath><clipPath
       clipPathUnits="userSpaceOnUse"
       id="clipPath74"><path
         d="m 136.897,763.769 h 29.591 v 35.601 h -29.591 z"
         id="path72" /></clipPath><clipPath
       clipPathUnits="userSpaceOnUse"
       id="clipPath108"><path
         d="M 0,0 H 595.275 V 841.89 H 0 Z"
         id="path106" /></clipPath></defs><sodipodi:namedview
     pagecolor="#ffffff"
     bordercolor="#666666"
     borderopacity="1"
     objecttolerance="10"
     gridtolerance="10"
     guidetolerance="10"
     inkscape:pageopacity="0"
     inkscape:pageshadow="2"
     inkscape:window-width="1366"
     inkscape:window-height="705"
     id="namedview4"
     showgrid="false"
     fit-margin-top="0"
     fit-margin-left="0"
     fit-margin-right="0"
     fit-margin-bottom="0"
     inkscape:zoom="1.0884411"
     inkscape:cx="-4.7806249"
     inkscape:cy="55.743077"
     inkscape:window-x="-8"
     inkscape:window-y="-8"
     inkscape:window-maximized="1"
     inkscape:current-layer="g10" /><g
     id="g10"
     inkscape:groupmode="layer"
     inkscape:label="AR-2017"
     transform="matrix(1.3333333,0,0,-1.3333333,-600.63198,1087.748)"><g
       id="g102"><g
         id="g104"
         clip-path="url(#clipPath108)"><g
           id="g110"
           transform="translate(513.641,808.228)"><path
             d="m 0,0 c 0,0 8.208,0.052 11.833,-3.698 3.625,-3.75 3.563,-7.688 0.594,-12.094 -3.375,-4.344 -7.906,-8.25 -8.031,-8.406 -0.125,-0.156 -0.844,-0.063 -1.094,0.219 -0.25,0.281 -1.031,1.156 -0.344,1.687 0.688,0.531 7.125,6.469 6.563,10.406 -0.563,3.938 -1.032,7.938 -10.407,9.407 0,0 0.084,2.5 0.886,2.479"
             style="fill:#c31d2d;fill-opacity:1;fill-rule:nonzero;stroke:none"
             id="path112" /></g><g
           id="g114"
           transform="translate(452.099,778.624)"><path
             d="m 0,0 c 0.094,-0.031 4.781,1.406 4.781,1.406 0,0 3.886,10.448 21.511,18.99 0,0 1,1.646 -1.334,1.083 C 22.75,20.687 3.917,11.729 0,0"
             style="fill:#c31d2d;fill-opacity:1;fill-rule:nonzero;stroke:none"
             id="path116" /></g><g
           id="g118"
           transform="translate(479.307,800.873)"><path
             d="m 0,0 c 0,0 -0.457,-1.771 1.397,-1.021 1.853,0.75 14.777,6.5 29.926,6.177 0,0 0.188,0.063 0.657,0.906 0.468,0.844 0.718,1.219 -0.219,1.219 C 30.823,7.281 17.459,8.604 0,0"
             style="fill:#c31d2d;fill-opacity:1;fill-rule:nonzero;stroke:none"
             id="path120" /></g><g
           id="g122"
           transform="translate(450.474,756.311)"><path
             d="m 0,0 v -9.458 h 4.437 l 3.407,5.895 v -5.895 h 3.719 L 17.937,0 H 13.719 L 10.5,-5.219 V 0 H 7.469 L 4.281,-5.187 V 0 Z"
             style="fill:#2e3892;fill-opacity:1;fill-rule:nonzero;stroke:none"
             id="path124" /></g><g
           id="g126"
           transform="translate(510.016,756.311)"><path
             d="M 0,0 H 10.708 L 9.583,-2.626 H 6.292 L 4.042,-9.458 H 0.25 l 2.458,6.707 H 0 Z"
             style="fill:#2e3892;fill-opacity:1;fill-rule:nonzero;stroke:none"
             id="path128" /></g><g
           id="g130"
           transform="translate(505.558,756.311)"><path
             d="M 0,0 -3.125,-9.458 H 0.666 L 3.666,0 Z"
             style="fill:#2e3892;fill-opacity:1;fill-rule:nonzero;stroke:none"
             id="path132" /></g><g
           id="g134"
           transform="translate(492.766,756.311)"><path
             d="m 0,0 -3.402,-9.458 h 4.11 l 1.708,3.874 H 3.708 L 5.125,-9.458 H 9.291 L 6.916,-3.667 11.75,0 H 6.833 L 3.791,-2.792 2.875,-2.667 3.833,0 Z"
             style="fill:#2e3892;fill-opacity:1;fill-rule:nonzero;stroke:none"
             id="path136" /></g><g
           id="g138"
           transform="translate(490.224,753.686)"><path
             d="m 0,0 c 0,0 0.031,2.625 -2.375,2.625 h -5.437 c 0,0 -3.584,-0.604 -3.584,-3.583 0,-1.084 0.666,-2.084 4.771,-2.084 0.484,0 1.719,0.167 1.719,-0.599 0,-0.718 -0.063,-1.062 -0.703,-1.046 -0.703,0 -3.219,0.015 -3.313,1.062 h -3.812 c 0,0 -0.079,-2.51 2.125,-3.208 h 6.14 c 0.25,0 4.05,1.255 4.05,3.692 0,1.36 -2.847,2.407 -4.565,2.438 -2.063,0 -2.719,0.109 -2.688,1.094 0,0.468 1.063,0.625 1.688,0.625 0.968,0 1.922,-0.766 1.922,-0.985 z"
             style="fill:#2e3892;fill-opacity:1;fill-rule:nonzero;stroke:none"
             id="path140" /></g><g
           id="g142"
           transform="translate(471.119,756.311)"><path
             d="m 0,0 -7.458,-9.458 h 4.438 l 0.937,1.541 H 1.25 L 1.542,-9.458 H 5.25 V 0 Z m 1.323,-6.187 h -2.426 l 2.426,2.749 z"
             style="fill:#2e3892;fill-opacity:1;fill-rule:nonzero;stroke:none"
             id="path144" /></g><g
           id="g146"
           transform="translate(523.411,756.311)"><path
             d="m 0,0 -7.459,-9.458 h 4.437 l 0.938,1.541 H 1.25 L 1.541,-9.458 H 5.25 V 0 Z m 1.744,-6.187 h -2.427 l 2.427,2.749 z"
             style="fill:#2e3892;fill-opacity:1;fill-rule:nonzero;stroke:none"
             id="path148" /></g><g
           id="g150"
           transform="translate(500.911,815.811)"><path
             d="m 0,0 h 4.062 l -6.041,-10.542 -8.834,-15.666 c 0,0 -0.812,-1.063 0.271,-2.771 1.146,-1.813 6.021,-10.875 6.021,-10.875 0,0 0.396,-0.959 1.208,0.479 C -2.5,-37.938 19.396,0 19.396,0 h 3.791 L 1.104,-39.167 -6.417,-51.521 c 0,0 -1.646,-1.478 -2.938,0.25 -1.291,1.729 -7.332,12.604 -7.332,12.604 0,0 -0.73,1.104 -1.313,0 -0.625,-1.312 -6.875,-12.417 -6.875,-12.417 0,0 -2.249,-2.666 -4.042,0.292 -1.729,3.042 -11.614,20.042 -11.614,20.042 0,0 -0.594,3.875 0.593,5.75 1.188,1.875 2.594,4.313 3.157,4.781 0.562,0.469 2.125,0.344 3.093,-1.468 0.969,-1.813 10.032,-17.907 10.032,-17.907 0,0 0.5,-0.937 1.406,0.656 0.906,1.594 2.375,4.313 2.375,4.313 0,0 0.75,0.906 0.125,1.906 -0.625,1 -3.125,2.875 -1.844,5.813 1.282,2.937 3.907,6.5 3.907,6.5 0,0 1.437,1 2.781,-0.719 0.656,-0.812 1.25,-3.25 2.062,-1.437 C -11.781,-20.437 0,0 0,0"
             style="fill:#2e3892;fill-opacity:1;fill-rule:nonzero;stroke:none"
             id="path152" /></g><g
           id="g154"
           transform="translate(451.786,777.03)"><path
             d="m 0,0 4.25,1.25 c 0,0 0.5,0.25 0.562,-1.25 0.063,-1.5 1.375,-5.625 6.469,-6.687 5.094,-1.063 10.581,-0.926 13.11,-0.719 2.671,0.219 6.234,0.25 6.234,0.25 v -1.438 c 0,0 -8.188,-1.406 -14.375,-1.375 C 10.063,-9.938 0.312,-9.75 0,0"
             style="fill:#c31d2d;fill-opacity:1;fill-rule:nonzero;stroke:none"
             id="path156" /></g><g
           id="g158"
           transform="translate(514.599,784.394)"><path
             d="m 0,0 c 0,0 -7.708,-8.25 -30.333,-14 v -1.75 c 0,0 20.292,4.417 32.042,14.334 z"
             style="fill:#c31d2d;fill-opacity:1;fill-rule:nonzero;stroke:none"
             id="path160" /></g></g></g></g></svg>
